<svg width="22" height="18" viewBox="0 0 22 18" fill="none" xmlns="http://www.w3.org/2000/svg">
<path d="M0.916016 9.45817V14.0415C0.916016 14.2846 1.01259 14.5178 1.1845 14.6897C1.35641 14.8616 1.58957 14.9582 1.83268 14.9582H2.74935C2.74935 15.6875 3.03908 16.387 3.55481 16.9027C4.07053 17.4184 4.77 17.7082 5.49935 17.7082C6.22869 17.7082 6.92817 17.4184 7.44389 16.9027C7.95962 16.387 8.24935 15.6875 8.24935 14.9582H13.7493C13.7493 15.6875 14.0391 16.387 14.5548 16.9027C15.0705 17.4184 15.77 17.7082 16.4993 17.7082C17.2287 17.7082 17.9282 17.4184 18.4439 16.9027C18.9596 16.387 19.2493 15.6875 19.2493 14.9582H20.166C20.4091 14.9582 20.6423 14.8616 20.8142 14.6897C20.9861 14.5178 21.0827 14.2846 21.0827 14.0415V3.0415C21.0827 2.31216 20.7929 1.61269 20.2772 1.09696C19.7615 0.581235 19.062 0.291504 18.3327 0.291504H10.0827C9.35334 0.291504 8.65386 0.581235 8.13814 1.09696C7.62241 1.61269 7.33268 2.31216 7.33268 3.0415V4.87484H5.49935C5.07242 4.87484 4.65136 4.97424 4.26951 5.16516C3.88766 5.35609 3.5555 5.6333 3.29935 5.97484L1.09935 8.90817C1.07254 8.94801 1.05097 8.99115 1.03518 9.0365L0.980182 9.13734C0.939726 9.23957 0.917991 9.34824 0.916016 9.45817ZM15.5827 14.9582C15.5827 14.7769 15.6364 14.5996 15.7372 14.4489C15.8379 14.2982 15.9811 14.1807 16.1486 14.1113C16.3161 14.0419 16.5004 14.0237 16.6782 14.0591C16.856 14.0945 17.0193 14.1818 17.1475 14.31C17.2757 14.4382 17.363 14.6015 17.3984 14.7793C17.4338 14.9572 17.4156 15.1415 17.3462 15.309C17.2769 15.4765 17.1594 15.6196 17.0086 15.7204C16.8579 15.8211 16.6806 15.8748 16.4993 15.8748C16.2562 15.8748 16.0231 15.7783 15.8512 15.6064C15.6793 15.4344 15.5827 15.2013 15.5827 14.9582ZM9.16602 3.0415C9.16602 2.79839 9.26259 2.56523 9.4345 2.39332C9.60641 2.22141 9.83957 2.12484 10.0827 2.12484H18.3327C18.5758 2.12484 18.809 2.22141 18.9809 2.39332C19.1528 2.56523 19.2493 2.79839 19.2493 3.0415V13.1248H18.5343C18.2766 12.8413 17.9624 12.6147 17.612 12.4596C17.2615 12.3046 16.8826 12.2245 16.4993 12.2245C16.1161 12.2245 15.7372 12.3046 15.3867 12.4596C15.0363 12.6147 14.7221 12.8413 14.4643 13.1248H9.16602V3.0415ZM7.33268 8.5415H3.66602L4.76602 7.07484C4.8514 6.96099 4.96212 6.86859 5.0894 6.80495C5.21669 6.7413 5.35704 6.70817 5.49935 6.70817H7.33268V8.5415ZM4.58268 14.9582C4.58268 14.7769 4.63644 14.5996 4.73717 14.4489C4.83789 14.2982 4.98106 14.1807 5.14856 14.1113C5.31605 14.0419 5.50037 14.0237 5.67818 14.0591C5.856 14.0945 6.01933 14.1818 6.14753 14.31C6.27573 14.4382 6.36303 14.6015 6.3984 14.7793C6.43377 14.9572 6.41562 15.1415 6.34624 15.309C6.27686 15.4765 6.15937 15.6196 6.00862 15.7204C5.85788 15.8211 5.68065 15.8748 5.49935 15.8748C5.25623 15.8748 5.02308 15.7783 4.85117 15.6064C4.67926 15.4344 4.58268 15.2013 4.58268 14.9582ZM2.74935 10.3748H7.33268V12.9232C6.7917 12.4397 6.08156 12.1896 5.35698 12.2273C4.63241 12.2651 3.95213 12.5877 3.46435 13.1248H2.74935V10.3748Z" fill="white"/>
</svg>
