<svg width="25" height="23" viewBox="0 0 25 23" fill="none" xmlns="http://www.w3.org/2000/svg">
<path d="M10.0827 10.2917H1.62435C1.30388 10.2917 0.996535 10.419 0.769928 10.6456C0.543322 10.8722 0.416016 11.1795 0.416016 11.5C0.416016 11.8205 0.543322 12.1278 0.769928 12.3544C0.996535 12.581 1.30388 12.7083 1.62435 12.7083H10.0827C10.4032 12.7083 10.7105 12.581 10.9371 12.3544C11.1637 12.1278 11.291 11.8205 11.291 11.5C11.291 11.1795 11.1637 10.8722 10.9371 10.6456C10.7105 10.419 10.4032 10.2917 10.0827 10.2917ZM10.0827 19.9583H1.62435C1.30388 19.9583 0.996535 20.0856 0.769928 20.3122C0.543322 20.5389 0.416016 20.8462 0.416016 21.1667C0.416016 21.4871 0.543322 21.7945 0.769928 22.0211C0.996535 22.2477 1.30388 22.375 1.62435 22.375H10.0827C10.4032 22.375 10.7105 22.2477 10.9371 22.0211C11.1637 21.7945 11.291 21.4871 11.291 21.1667C11.291 20.8462 11.1637 20.5389 10.9371 20.3122C10.7105 20.0856 10.4032 19.9583 10.0827 19.9583ZM14.916 3.04167H23.3743C23.6948 3.04167 24.0022 2.91436 24.2288 2.68775C24.4554 2.46115 24.5827 2.1538 24.5827 1.83333C24.5827 1.51286 24.4554 1.20552 24.2288 0.978913C24.0022 0.752306 23.6948 0.625 23.3743 0.625H14.916C14.5955 0.625 14.2882 0.752306 14.0616 0.978913C13.835 1.20552 13.7077 1.51286 13.7077 1.83333C13.7077 2.1538 13.835 2.46115 14.0616 2.68775C14.2882 2.91436 14.5955 3.04167 14.916 3.04167ZM10.0827 5.45833H1.62435C1.30388 5.45833 0.996535 5.58564 0.769928 5.81225C0.543322 6.03885 0.416016 6.3462 0.416016 6.66667C0.416016 6.98714 0.543322 7.29448 0.769928 7.52109C0.996535 7.74769 1.30388 7.875 1.62435 7.875H10.0827C10.4032 7.875 10.7105 7.74769 10.9371 7.52109C11.1637 7.29448 11.291 6.98714 11.291 6.66667C11.291 6.3462 11.1637 6.03885 10.9371 5.81225C10.7105 5.58564 10.4032 5.45833 10.0827 5.45833ZM10.0827 15.125H1.62435C1.30388 15.125 0.996535 15.2523 0.769928 15.4789C0.543322 15.7055 0.416016 16.0129 0.416016 16.3333C0.416016 16.6538 0.543322 16.9611 0.769928 17.1878C0.996535 17.4144 1.30388 17.5417 1.62435 17.5417H10.0827C10.4032 17.5417 10.7105 17.4144 10.9371 17.1878C11.1637 16.9611 11.291 16.6538 11.291 16.3333C11.291 16.0129 11.1637 15.7055 10.9371 15.4789C10.7105 15.2523 10.4032 15.125 10.0827 15.125ZM10.0827 0.625H6.45768C6.13721 0.625 5.82987 0.752306 5.60326 0.978913C5.37666 1.20552 5.24935 1.51286 5.24935 1.83333C5.24935 2.1538 5.37666 2.46115 5.60326 2.68775C5.82987 2.91436 6.13721 3.04167 6.45768 3.04167H10.0827C10.4032 3.04167 10.7105 2.91436 10.9371 2.68775C11.1637 2.46115 11.291 2.1538 11.291 1.83333C11.291 1.51286 11.1637 1.20552 10.9371 0.978913C10.7105 0.752306 10.4032 0.625 10.0827 0.625ZM23.3743 5.45833H14.916C14.5955 5.45833 14.2882 5.58564 14.0616 5.81225C13.835 6.03885 13.7077 6.3462 13.7077 6.66667C13.7077 6.98714 13.835 7.29448 14.0616 7.52109C14.2882 7.74769 14.5955 7.875 14.916 7.875H23.3743C23.6948 7.875 24.0022 7.74769 24.2288 7.52109C24.4554 7.29448 24.5827 6.98714 24.5827 6.66667C24.5827 6.3462 24.4554 6.03885 24.2288 5.81225C24.0022 5.58564 23.6948 5.45833 23.3743 5.45833ZM23.3743 10.2917H14.916C14.5955 10.2917 14.2882 10.419 14.0616 10.6456C13.835 10.8722 13.7077 11.1795 13.7077 11.5C13.7077 11.8205 13.835 12.1278 14.0616 12.3544C14.2882 12.581 14.5955 12.7083 14.916 12.7083H23.3743C23.6948 12.7083 24.0022 12.581 24.2288 12.3544C24.4554 12.1278 24.5827 11.8205 24.5827 11.5C24.5827 11.1795 24.4554 10.8722 24.2288 10.6456C24.0022 10.419 23.6948 10.2917 23.3743 10.2917ZM18.541 19.9583H14.916C14.5955 19.9583 14.2882 20.0856 14.0616 20.3122C13.835 20.5389 13.7077 20.8462 13.7077 21.1667C13.7077 21.4871 13.835 21.7945 14.0616 22.0211C14.2882 22.2477 14.5955 22.375 14.916 22.375H18.541C18.8615 22.375 19.1688 22.2477 19.3954 22.0211C19.622 21.7945 19.7493 21.4871 19.7493 21.1667C19.7493 20.8462 19.622 20.5389 19.3954 20.3122C19.1688 20.0856 18.8615 19.9583 18.541 19.9583ZM23.3743 15.125H14.916C14.5955 15.125 14.2882 15.2523 14.0616 15.4789C13.835 15.7055 13.7077 16.0129 13.7077 16.3333C13.7077 16.6538 13.835 16.9611 14.0616 17.1878C14.2882 17.4144 14.5955 17.5417 14.916 17.5417H23.3743C23.6948 17.5417 24.0022 17.4144 24.2288 17.1878C24.4554 16.9611 24.5827 16.6538 24.5827 16.3333C24.5827 16.0129 24.4554 15.7055 24.2288 15.4789C24.0022 15.2523 23.6948 15.125 23.3743 15.125Z" fill="white"/>
</svg>
