<svg width="16" height="20" viewBox="0 0 16 20" fill="none" xmlns="http://www.w3.org/2000/svg">
<path d="M14.9935 2.34595C14.887 2.25981 14.7626 2.19862 14.6293 2.16689C14.4961 2.13517 14.3574 2.13371 14.2235 2.16262C13.244 2.3679 12.2328 2.37052 11.2523 2.1703C10.2717 1.97009 9.34249 1.57129 8.52185 0.998453C8.36841 0.892003 8.18611 0.834961 7.99935 0.834961C7.8126 0.834961 7.6303 0.892003 7.47685 0.998453C6.65621 1.57129 5.72701 1.97009 4.74644 2.1703C3.76587 2.37052 2.7547 2.3679 1.77519 2.16262C1.6413 2.13371 1.50263 2.13517 1.36938 2.16689C1.23613 2.19862 1.11168 2.25981 1.00519 2.34595C0.898835 2.43223 0.813165 2.54124 0.754472 2.66497C0.695779 2.7887 0.665555 2.92401 0.666021 3.06095V9.89012C0.665206 11.2044 0.978396 12.4998 1.57951 13.6686C2.18063 14.8373 3.05227 15.8455 4.12185 16.6093L7.46769 18.9926C7.62294 19.1032 7.80878 19.1626 7.99935 19.1626C8.18993 19.1626 8.37577 19.1032 8.53102 18.9926L11.8769 16.6093C12.9464 15.8455 13.8181 14.8373 14.4192 13.6686C15.0203 12.4998 15.3335 11.2044 15.3327 9.89012V3.06095C15.3332 2.92401 15.3029 2.7887 15.2442 2.66497C15.1855 2.54124 15.0999 2.43223 14.9935 2.34595ZM13.4994 9.89012C13.5001 10.912 13.2567 11.9192 12.7895 12.8281C12.3224 13.7369 11.6449 14.521 10.8135 15.1151L7.99935 17.1226L5.18519 15.1151C4.3538 14.521 3.67634 13.7369 3.20917 12.8281C2.74201 11.9192 2.49865 10.912 2.49935 9.89012V4.11512C4.42108 4.2796 6.34572 3.83372 7.99935 2.84095C9.65298 3.83372 11.5776 4.2796 13.4994 4.11512V9.89012ZM9.41102 7.79095L6.94519 10.266L6.12935 9.44095C5.95674 9.26834 5.72263 9.17137 5.47852 9.17137C5.23441 9.17137 5.0003 9.26834 4.82769 9.44095C4.65508 9.61356 4.5581 9.84768 4.5581 10.0918C4.5581 10.3359 4.65508 10.57 4.82769 10.7426L6.29435 12.2093C6.37957 12.2952 6.48095 12.3634 6.59266 12.4099C6.70436 12.4565 6.82418 12.4804 6.94519 12.4804C7.0662 12.4804 7.18601 12.4565 7.29772 12.4099C7.40942 12.3634 7.5108 12.2952 7.59602 12.2093L10.7494 9.08345C10.922 8.91084 11.0189 8.67673 11.0189 8.43262C11.0189 8.18851 10.922 7.9544 10.7494 7.78179C10.5767 7.60917 10.3426 7.5122 10.0985 7.5122C9.85441 7.5122 9.6203 7.60917 9.44769 7.78179L9.41102 7.79095Z" fill="white"/>
</svg>
