<svg width="25" height="25" viewBox="0 0 25 25" fill="none" xmlns="http://www.w3.org/2000/svg">
<path d="M7.66687 11.2917C7.42789 11.2917 7.19427 11.3626 6.99556 11.4954C6.79685 11.6282 6.64197 11.8169 6.55052 12.0377C6.45906 12.2585 6.43513 12.5014 6.48176 12.7358C6.52838 12.9702 6.64346 13.1855 6.81245 13.3545C6.98144 13.5235 7.19674 13.6386 7.43114 13.6852C7.66553 13.7318 7.90849 13.7079 8.12928 13.6164C8.35007 13.525 8.53879 13.3701 8.67156 13.1714C8.80434 12.9727 8.87521 12.7391 8.87521 12.5001C8.87521 12.1796 8.7479 11.8723 8.52129 11.6457C8.29469 11.4191 7.98734 11.2917 7.66687 11.2917ZM12.5002 11.2917C12.2612 11.2917 12.0276 11.3626 11.8289 11.4954C11.6302 11.6282 11.4753 11.8169 11.3839 12.0377C11.2924 12.2585 11.2685 12.5014 11.3151 12.7358C11.3617 12.9702 11.4768 13.1855 11.6458 13.3545C11.8148 13.5235 12.0301 13.6386 12.2645 13.6852C12.4989 13.7318 12.7418 13.7079 12.9626 13.6164C13.1834 13.525 13.3721 13.3701 13.5049 13.1714C13.6377 12.9727 13.7085 12.7391 13.7085 12.5001C13.7085 12.1796 13.5812 11.8723 13.3546 11.6457C13.128 11.4191 12.8207 11.2917 12.5002 11.2917ZM17.3335 11.2917C17.0946 11.2917 16.8609 11.3626 16.6622 11.4954C16.4635 11.6282 16.3086 11.8169 16.2172 12.0377C16.1257 12.2585 16.1018 12.5014 16.1484 12.7358C16.195 12.9702 16.3101 13.1855 16.4791 13.3545C16.6481 13.5235 16.8634 13.6386 17.0978 13.6852C17.3322 13.7318 17.5752 13.7079 17.7959 13.6164C18.0167 13.525 18.2055 13.3701 18.3382 13.1714C18.471 12.9727 18.5419 12.7391 18.5419 12.5001C18.5419 12.1796 18.4146 11.8723 18.188 11.6457C17.9614 11.4191 17.654 11.2917 17.3335 11.2917ZM12.5002 0.416748C10.9134 0.416748 9.34213 0.729293 7.87611 1.33654C6.4101 1.94378 5.07804 2.83383 3.956 3.95587C1.68993 6.22194 0.416871 9.29538 0.416871 12.5001C0.406308 15.2903 1.37241 17.9962 3.1477 20.1488L0.731038 22.5655C0.563372 22.7354 0.449793 22.9512 0.404633 23.1856C0.359473 23.42 0.384754 23.6625 0.477288 23.8826C0.577649 24.1 0.740347 24.2827 0.944728 24.4075C1.14911 24.5322 1.38596 24.5935 1.6252 24.5834H12.5002C15.7049 24.5834 18.7783 23.3104 21.0444 21.0443C23.3105 18.7782 24.5835 15.7048 24.5835 12.5001C24.5835 9.29538 23.3105 6.22194 21.0444 3.95587C18.7783 1.68981 15.7049 0.416748 12.5002 0.416748ZM12.5002 22.1667H4.53729L5.66104 21.043C5.77521 20.9311 5.86604 20.7976 5.92827 20.6504C5.99049 20.5031 6.02287 20.345 6.02354 20.1851C6.019 19.8664 5.88871 19.5623 5.66104 19.3392C4.07883 17.7588 3.09354 15.6786 2.87304 13.4532C2.65254 11.2278 3.21047 8.99471 4.45177 7.1345C5.69307 5.27429 7.54095 3.90201 9.68058 3.25147C11.8202 2.60092 14.1192 2.71235 16.1859 3.56677C18.2526 4.42119 19.9591 5.96575 21.0147 7.93728C22.0702 9.90882 22.4096 12.1854 21.9749 14.379C21.5402 16.5727 20.3584 18.5478 18.6307 19.9679C16.9031 21.3879 14.7365 22.165 12.5002 22.1667Z" fill="white"/>
</svg>
