<svg width="22" height="22" viewBox="0 0 22 22" fill="none" xmlns="http://www.w3.org/2000/svg">
<path d="M20.166 0.916523H13.7493C13.2245 0.914373 12.7157 1.09684 12.3118 1.43199C11.908 1.76715 11.6348 2.23364 11.5402 2.74986L10.6968 7.37902C10.6386 7.70154 10.6519 8.03293 10.7358 8.34973C10.8198 8.66654 10.9723 8.96103 11.1827 9.21236C11.3942 9.46381 11.6579 9.66621 11.9555 9.80551C12.2531 9.94481 12.5774 10.0177 12.906 10.019H15.5827L15.3535 10.624C15.1843 11.0726 15.1256 11.5553 15.1822 12.0314C15.2388 12.5075 15.4091 12.963 15.6788 13.3594C15.9485 13.7558 16.3095 14.0815 16.7316 14.309C17.1536 14.5365 17.6241 14.6591 18.1035 14.6665C18.2814 14.6679 18.4559 14.6175 18.6056 14.5215C18.7554 14.4255 18.8739 14.2879 18.9468 14.1257L21.0002 9.48736C21.0469 9.38631 21.0749 9.27759 21.0827 9.16652V1.83319C21.0827 1.59007 20.9861 1.35692 20.8142 1.18501C20.6423 1.0131 20.4091 0.916523 20.166 0.916523ZM19.2493 8.91902L17.5718 12.7049C17.4081 12.6158 17.267 12.4903 17.1593 12.3382C17.0515 12.1855 16.9833 12.0084 16.9609 11.8227C16.9385 11.6371 16.9626 11.4488 17.031 11.2749L17.3793 10.3582C17.471 10.1205 17.5022 9.86369 17.4702 9.61092C17.4382 9.35815 17.344 9.11726 17.196 8.90986C17.0503 8.70325 16.8565 8.5352 16.6313 8.42021C16.4061 8.30523 16.1563 8.24676 15.9035 8.24986H12.8877C12.8268 8.25003 12.7666 8.237 12.7112 8.21169C12.6558 8.18637 12.6066 8.14935 12.5668 8.10319C12.4957 8.00544 12.466 7.88353 12.4843 7.76402L13.3277 3.18069C13.3237 3.12388 13.3319 3.06687 13.3515 3.01343C13.3712 2.95998 13.402 2.91131 13.4418 2.87061C13.4816 2.82991 13.5296 2.79811 13.5826 2.77729C13.6356 2.75648 13.6925 2.74713 13.7493 2.74986H19.2493V8.91902ZM9.11102 11.9624H6.46185L6.69102 11.3574C6.85776 10.9061 6.91311 10.4213 6.85236 9.94416C6.79162 9.46698 6.61658 9.01151 6.34211 8.61646C6.06765 8.22141 5.70187 7.89845 5.27587 7.67504C4.84986 7.45163 4.37622 7.33435 3.89518 7.33319C3.71729 7.33178 3.54284 7.38217 3.39309 7.4782C3.24335 7.57424 3.12478 7.71177 3.05185 7.87402L0.998516 12.5124C0.945986 12.6276 0.917896 12.7524 0.916016 12.879V20.2124C0.916016 20.4555 1.01259 20.6886 1.1845 20.8605C1.35641 21.0324 1.58957 21.129 1.83268 21.129H8.24935C8.77416 21.1312 9.28302 20.9487 9.68688 20.6136C10.0907 20.2784 10.3639 19.8119 10.4585 19.2957L11.3018 14.7124C11.3601 14.3898 11.3468 14.0585 11.2629 13.7416C11.1789 13.4248 11.0264 13.1304 10.816 12.879C10.6172 12.6097 10.3612 12.3878 10.0664 12.2293C9.7716 12.0708 9.4453 11.9796 9.11102 11.9624ZM8.67102 18.9107C8.65528 19.0094 8.60342 19.0988 8.5255 19.1615C8.44759 19.2242 8.34917 19.2556 8.24935 19.2499H2.74935V13.0807L4.42685 9.29486C4.59057 9.38394 4.73168 9.50938 4.83935 9.66152C4.94723 9.81423 5.01543 9.99136 5.03784 10.177C5.06024 10.3626 5.03613 10.5509 4.96768 10.7249L4.61935 11.6415C4.52771 11.8793 4.49649 12.136 4.52849 12.3888C4.56048 12.6416 4.6547 12.8824 4.80268 13.0899C4.94637 13.2999 5.13929 13.4715 5.3646 13.5897C5.5899 13.708 5.84073 13.7692 6.09518 13.7682H9.11102C9.17191 13.768 9.23212 13.781 9.28751 13.8064C9.34289 13.8317 9.39213 13.8687 9.43185 13.9149C9.50301 14.0126 9.53266 14.1345 9.51435 14.254L8.67102 18.9107Z" fill="white"/>
</svg>
