<svg width="20" height="18" viewBox="0 0 20 18" fill="none" xmlns="http://www.w3.org/2000/svg">
<path d="M10.0007 0.75C8.79687 0.75 7.60487 0.987103 6.49272 1.44777C5.38057 1.90844 4.37004 2.58365 3.51884 3.43485C1.79976 5.15394 0.833984 7.48552 0.833984 9.91667V16.3333C0.833984 16.5764 0.930561 16.8096 1.10247 16.9815C1.27438 17.1534 1.50754 17.25 1.75065 17.25H4.50065C5.23 17.25 5.92947 16.9603 6.4452 16.4445C6.96092 15.9288 7.25065 15.2293 7.25065 14.5V12.6667C7.25065 11.9373 6.96092 11.2378 6.4452 10.7221C5.92947 10.2064 5.23 9.91667 4.50065 9.91667H2.66732C2.66732 7.97175 3.43993 6.10648 4.8152 4.73122C6.19047 3.35595 8.05573 2.58333 10.0007 2.58333C11.9456 2.58333 13.8108 3.35595 15.1861 4.73122C16.5614 6.10648 17.334 7.97175 17.334 9.91667H15.5007C14.7713 9.91667 14.0718 10.2064 13.5561 10.7221C13.0404 11.2378 12.7507 11.9373 12.7507 12.6667V14.5C12.7507 15.2293 13.0404 15.9288 13.5561 16.4445C14.0718 16.9603 14.7713 17.25 15.5007 17.25H18.2507C18.4938 17.25 18.7269 17.1534 18.8988 16.9815C19.0707 16.8096 19.1673 16.5764 19.1673 16.3333V9.91667C19.1673 7.48552 18.2015 5.15394 16.4825 3.43485C14.7634 1.71577 12.4318 0.75 10.0007 0.75ZM4.50065 11.75C4.74377 11.75 4.97692 11.8466 5.14883 12.0185C5.32074 12.1904 5.41732 12.4236 5.41732 12.6667V14.5C5.41732 14.7431 5.32074 14.9763 5.14883 15.1482C4.97692 15.3201 4.74377 15.4167 4.50065 15.4167H2.66732V11.75H4.50065ZM17.334 15.4167H15.5007C15.2575 15.4167 15.0244 15.3201 14.8525 15.1482C14.6806 14.9763 14.584 14.7431 14.584 14.5V12.6667C14.584 12.4236 14.6806 12.1904 14.8525 12.0185C15.0244 11.8466 15.2575 11.75 15.5007 11.75H17.334V15.4167Z" fill="white"/>
</svg>
