<svg width="397" height="96.9925" xmlns="http://www.w3.org/2000/svg">

 <g>
  <title>background</title>
  <rect fill="none" id="canvas_background" height="98.9925" width="399" y="-1" x="-1"/>
 </g>
 <g>
  <title>Layer 1</title>
  <path id="svg_1" fill-rule="evenodd" fill="#e30613" d="m34.998,0c-7.305,0 -15.966,7.023 -23.11,18.83c-7.446,12.228 -11.888,27.366 -11.888,40.512c0,19.245 10.8,38.653 35,38.653c24.171,0 35,-19.408 35,-38.653c0,-13.146 -4.44,-28.284 -11.85,-40.512c-7.211,-11.807 -15.871,-18.83 -23.152,-18.83zm188.991,28.874l24.5,0l0,63.873l26.25,0l0,-63.873l24.49,0l0,-23.627l-75.24,0l0,23.624l0,0.003zm131.24,0l38.5,0l0,-23.627l-38.5,0c-35.37,0 -54.26,17.586 -54.26,43.747s18.89,43.753 54.26,43.753l38.5,0l0,-23.626l-38.5,0c-16.37,0 -27.13,-5.851 -27.13,-20.124s10.76,-20.123 27.13,-20.123zm-184.63,-23.627l-13.99,52.225l-13.99,-52.225l-46.37,0l0,87.5l26.24,0l0,-71.17l19.07,71.17l30.1,0l19.08,-71.213l0,71.213l26.25,0l0,-87.5l-46.39,0z"/>
 </g>
</svg>