<svg xmlns="http://www.w3.org/2000/svg" width="232.9" height="233" viewBox="0 0 232.9 233"><style>.st0{fill:url(#SVGID_1_)}.st1{fill:#fff}.st2{fill:url(#SVGID_2_)}</style><linearGradient id="SVGID_1_" gradientUnits="userSpaceOnUse" x1="-179.872" y1="536.585" x2="-179.872" y2="535.585" gradientTransform="matrix(232.75 0 0 -233 41981.738 125024.375)"><stop offset="0" stop-color="#111d2e"/><stop offset=".212" stop-color="#051839"/><stop offset=".407" stop-color="#0a1b48"/><stop offset=".581" stop-color="#132e62"/><stop offset=".738" stop-color="#144b7e"/><stop offset=".873" stop-color="#136497"/><stop offset="1" stop-color="#1387b8"/></linearGradient><path class="st0" d="M4.7 150c14.4 48 58.9 83 111.6 83 64.3 0 116.5-52.2 116.5-116.5C232.9 52.2 180.7 0 116.4 0 54.6 0 4.1 48 .1 108.8c7.5 12.6 10.5 20.5 4.6 41.2z"/><path class="st1" d="M110.4 87.3v.6l-28.5 41.4c-4.6-.2-9.3.6-13.6 2.4-1.9.8-3.8 1.8-5.5 2.9L.2 108.8s-1.4 23.8 4.6 41.6L49 168.7c2.2 9.9 9 18.6 19.1 22.8 16.4 6.9 35.4-1 42.2-17.4 1.8-4.3 2.6-8.8 2.5-13.3l40.8-29.1h1c24.4 0 44.3-19.9 44.3-44.3s-19.8-44.3-44.3-44.3c-24.4-.1-44.2 19.8-44.2 44.2zm-6.9 83.9c-5.3 12.7-19.9 18.7-32.6 13.4-5.9-2.4-10.3-6.9-12.8-12.2l14.4 6c9.4 3.9 20.1-.5 24-9.9 3.9-9.4-.5-20.1-9.9-24l-14.9-6.2c5.7-2.2 12.3-2.3 18.4.3 6.2 2.6 10.9 7.4 13.5 13.5s2.5 13-.1 19.1m51.1-54.3c-16.3 0-29.5-13.3-29.5-29.5 0-16.3 13.2-29.5 29.5-29.5s29.5 13.3 29.5 29.5-13.2 29.5-29.5 29.5m-22.1-29.6c0-12.3 9.9-22.2 22.1-22.2 12.2 0 22.1 9.9 22.1 22.2 0 12.3-9.9 22.2-22.1 22.2-12.2 0-22.1-10-22.1-22.2z"/></svg>