<svg xmlns="http://www.w3.org/2000/svg" height="800" width="1200" viewBox="-51.75 -32.511 448.5 195.066"><path d="M0 45.795v18.774l50.646-5.571v-20.32L0 45.795M16.162 65.71v64.333h18.542V63.816L16.162 65.71m41.324-27.994v92.327h19.538V34.97l-19.538 2.747m23.178-3.26v21.24l28.213-3.104v-22.1l-28.213 3.965m0 37.047V93.13l18.52-1.01V69.91l-18.52 1.594m0 37.214v21.325h28.213v-22.176l-28.213.85m101.175-88.511v109.837h25.613V16.607l-25.613 3.6m30.396-4.273v25.265l37.326-4.104V10.687l-37.326 5.247m0 44.266v25.733l24.465-1.336V58.105L212.235 60.2m0 44.542v25.302h37.326v-26.43l-37.326 1.128m-95.893-75.3v100.602h22.256V26.314l-22.256 3.129m26.41 77.403v23.197h32.306V105.87l-32.306.975m190.492-97.4C325.149 1.797 313.28-1.34 300.298.525v28.022c5.257-.292 9.517 1.659 11.415 5.587 2.997 6.193-.095 15.485-7.389 24.094-11.258 13.285-41.195 40.477-41.195 40.477l42.976-1.413c26.259-25.654 35.689-41.226 37.381-60.661.889-10.282-2.843-20.19-10.242-27.186M345 130.044v-29.321l-87.168 2.626m0-.001l.009 26.695H345M295.287 1.153c-25.323 5.394-37.758 24.024-36.323 54.423l27-2.396c-1.23-17.174 4.023-21.248 9.336-23.488l-.013-28.538" fill="#141414"/></svg>