<?xml version="1.0" encoding="UTF-8"?>
<!DOCTYPE svg PUBLIC "-//W3C//DTD SVG 1.1//EN" "http://www.w3.org/Graphics/SVG/1.1/DTD/svg11.dtd">
<!-- Creator: CorelDRAW -->
<svg xmlns="http://www.w3.org/2000/svg" xml:space="preserve" width="120px" height="120px" version="1.1" style="shape-rendering:geometricPrecision; text-rendering:geometricPrecision; image-rendering:optimizeQuality; fill-rule:evenodd; clip-rule:evenodd"
viewBox="0 0 120 120"
 xmlns:xlink="http://www.w3.org/1999/xlink"
 xmlns:xodm="http://www.corel.com/coreldraw/odm/2003">
 <defs>
  <style type="text/css">
   <![CDATA[
    .str4 {stroke:#1F1B20;stroke-width:0.48;stroke-miterlimit:22.9256}
    .str3 {stroke:#1F1B20;stroke-width:0.97;stroke-miterlimit:22.9256}
    .str0 {stroke:#2B2A29;stroke-width:0.07;stroke-miterlimit:22.9256}
    .str5 {stroke:#2B2926;stroke-width:0.07;stroke-miterlimit:22.9256}
    .str1 {stroke:#1F1B20;stroke-width:0.06;stroke-miterlimit:22.9256}
    .str2 {stroke:#1F1B20;stroke-width:0.97;stroke-linejoin:round;stroke-miterlimit:11.4737}
    .fil2 {fill:none}
    .fil1 {fill:#2B2A29}
    .fil7 {fill:#2B2A29}
    .fil6 {fill:#005BBF}
    .fil5 {fill:#009E49}
    .fil3 {fill:#D81E05}
    .fil4 {fill:#FCE216}
    .fil0 {fill:#00A5DB}
   ]]>
  </style>
 </defs>
 <g id="Слой_x0020_1">
  <metadata id="CorelCorpID_0Corel-Layer"/>
  <rect class="fil0 str0" x="-0.02" y="0.02" width="120" height="120" rx="19.74" ry="20.57"/>
  <ellipse class="fil1 str1" cx="59.98" cy="60.02" rx="11.04" ry="10.84"/>
  <path class="fil2 str2" d="M77.45 77.49l0 31.72c0,1.88 -1.54,3.43 -3.43,3.43l-28.08 0c-1.88,0 -3.43,-1.55 -3.43,-3.43l0 -31.75m-0.95 -67.09c1.96,-1.96 2.5,-2.97 4.38,-2.97l28.08 0c1.89,0 3.43,1.54 3.43,3.43l0 31.78"/>
  <path class="fil2 str3" d="M77.45 42.61l31.72 -0.06m0 0c1.89,0 3.43,1.54 3.43,3.43m0 0l0 28.08m0 0c0,1.88 -1.54,3.43 -3.43,3.43m0 0l-31.72 0m-34.94 -0.03l-31.72 0.03c-1.88,0 -3.43,-1.55 -3.43,-3.43l0 -28.08c0,-1.89 1.76,-3.15 2.96,-4.35"/>
  <line class="fil2 str3" x1="10.32" y1="41.63" x2="41.56" y2= "10.37" />
  <polygon class="fil3 str4" points="56.28,16.5 49.54,27.1 59.78,27.1 70.02,27.1 63.69,16.5 59.98,12.54 "/>
  <polygon class="fil4 str4" points="25.59,60.12 25.59,49.11 19.11,54.61 12.64,60.12 19.11,65.62 25.59,71.12 "/>
  <polygon class="fil5 str4" points="70.73,94.83 59.84,93.14 49.93,94.83 55.22,101.89 59.98,107.49 64.87,102.18 "/>
  <polygon class="fil6 str4" points="104.84,52.5 95.39,49.11 94.22,59.27 95.32,68.34 103.37,63.58 111.16,59.83 "/>
  <path class="fil7 str5" d="M95.7 59.27l-0.31 -10.16 6.48 5.08 5.9 5.08 -5.51 4.08 -6.48 4.21 -0.08 -8.29zm-54.14 -48.9l-31.24 31.26c-1.2,1.2 -2.96,2.46 -2.96,4.35l0 28.08c0,1.88 1.55,3.43 3.43,3.43l31.72 -0.03 0 31.75c0,1.88 1.55,3.43 3.43,3.43l28.08 0c1.89,0 3.43,-1.55 3.43,-3.43l0 -31.72 31.72 0c1.89,0 3.43,-1.55 3.43,-3.43l0 -28.08c0,-1.89 -1.54,-3.43 -3.43,-3.43l-31.72 0.06 0 -31.78c0,-1.89 -1.54,-3.43 -3.43,-3.43l-28.08 0c-1.88,0 -2.42,1.01 -4.38,2.97zm20.84 84.46l8.33 0 -5.86 7.35 -4.89 5.31 -4.76 -5.6 -4.05 -7.27 11.23 0.21zm-36.81 -45.72l0 11.01 0 11 -8.07 -6.65 -4.88 -4.45 4.88 -4.45 8.07 -6.46zm34.19 -22.01l-10.24 0 4.22 -6.64 6.22 -7.92 6.07 7.92 3.97 6.64 -10.24 0z"/>
 </g>
</svg>
