<svg width="138" height="71" viewBox="0 0 138 71" fill="none" xmlns="http://www.w3.org/2000/svg">
<g filter="url(#filter0_d_12_74)">
<rect x="2" y="14" width="132" height="45" rx="4" fill="black"/>
<rect x="2" y="14" width="132" height="45" rx="4" fill="url(#paint0_linear_12_74)" fill-opacity="0.27"/>
</g>
<path fill-rule="evenodd" clip-rule="evenodd" d="M5 14C3.34315 14 2 15.3431 2 17H134C134 15.3431 132.657 14 131 14H5ZM134 56H2C2 57.6569 3.34314 59 5 59H131C132.657 59 134 57.6569 134 56Z" fill="#00519C"/>
<path fill-rule="evenodd" clip-rule="evenodd" d="M5 14C3.34315 14 2 15.3431 2 17H134C134 15.3431 132.657 14 131 14H5ZM134 56H2C2 57.6569 3.34314 59 5 59H131C132.657 59 134 57.6569 134 56Z" fill="url(#paint1_linear_12_74)" fill-opacity="0.5"/>
<g filter="url(#filter1_d_12_74)">
<mask id="path-3-inside-1_12_74" fill="white">
<path fill-rule="evenodd" clip-rule="evenodd" d="M58.9609 4.05228C59.8704 2.80815 61.3408 2 63 2H76.4C79.1614 2 81.4 4.23858 81.4 7V22.41H98C100.761 22.41 103 24.6486 103 27.41V40.81C103 43.5714 100.761 45.81 98 45.81H81.4V62C81.4 64.7614 79.1614 67 76.4 67H63C60.2386 67 58 64.7614 58 62V45.81H43C40.2386 45.81 38 43.5714 38 40.81V27.41C38 25.6813 38.8773 24.1575 40.2109 23.2596L58.9609 4.05228Z"/>
</mask>
<path fill-rule="evenodd" clip-rule="evenodd" d="M58.9609 4.05228C59.8704 2.80815 61.3408 2 63 2H76.4C79.1614 2 81.4 4.23858 81.4 7V22.41H98C100.761 22.41 103 24.6486 103 27.41V40.81C103 43.5714 100.761 45.81 98 45.81H81.4V62C81.4 64.7614 79.1614 67 76.4 67H63C60.2386 67 58 64.7614 58 62V45.81H43C40.2386 45.81 38 43.5714 38 40.81V27.41C38 25.6813 38.8773 24.1575 40.2109 23.2596L58.9609 4.05228Z" fill="white"/>
<path fill-rule="evenodd" clip-rule="evenodd" d="M58.9609 4.05228C59.8704 2.80815 61.3408 2 63 2H76.4C79.1614 2 81.4 4.23858 81.4 7V22.41H98C100.761 22.41 103 24.6486 103 27.41V40.81C103 43.5714 100.761 45.81 98 45.81H81.4V62C81.4 64.7614 79.1614 67 76.4 67H63C60.2386 67 58 64.7614 58 62V45.81H43C40.2386 45.81 38 43.5714 38 40.81V27.41C38 25.6813 38.8773 24.1575 40.2109 23.2596L58.9609 4.05228Z" fill="url(#paint2_linear_12_74)"/>
<path d="M58.9609 4.05228L59.3187 4.40155L59.3435 4.37609L59.3645 4.34736L58.9609 4.05228ZM81.4 22.41H80.9V22.91H81.4V22.41ZM81.4 45.81V45.31H80.9V45.81H81.4ZM58 45.81H58.5V45.31H58V45.81ZM40.2109 23.2596L40.4902 23.6743L40.5328 23.6456L40.5687 23.6088L40.2109 23.2596ZM63 1.5C61.1745 1.5 59.5568 2.38982 58.5572 3.7572L59.3645 4.34736C60.1839 3.22647 61.5071 2.5 63 2.5V1.5ZM76.4 1.5H63V2.5H76.4V1.5ZM81.9 7C81.9 3.96243 79.4375 1.5 76.4 1.5V2.5C78.8853 2.5 80.9 4.51472 80.9 7H81.9ZM81.9 22.41V7H80.9V22.41H81.9ZM98 21.91H81.4V22.91H98V21.91ZM103.5 27.41C103.5 24.3724 101.038 21.91 98 21.91V22.91C100.485 22.91 102.5 24.9247 102.5 27.41H103.5ZM103.5 40.81V27.41H102.5V40.81H103.5ZM98 46.31C101.038 46.31 103.5 43.8476 103.5 40.81H102.5C102.5 43.2953 100.485 45.31 98 45.31V46.31ZM81.4 46.31H98V45.31H81.4V46.31ZM81.9 62V45.81H80.9V62H81.9ZM76.4 67.5C79.4375 67.5 81.9 65.0376 81.9 62H80.9C80.9 64.4853 78.8853 66.5 76.4 66.5V67.5ZM63 67.5H76.4V66.5H63V67.5ZM57.5 62C57.5 65.0376 59.9624 67.5 63 67.5V66.5C60.5147 66.5 58.5 64.4853 58.5 62H57.5ZM57.5 45.81V62H58.5V45.81H57.5ZM43 46.31H58V45.31H43V46.31ZM37.5 40.81C37.5 43.8476 39.9624 46.31 43 46.31V45.31C40.5147 45.31 38.5 43.2953 38.5 40.81H37.5ZM37.5 27.41V40.81H38.5V27.41H37.5ZM39.9317 22.8448C38.4659 23.8317 37.5 25.508 37.5 27.41H38.5C38.5 25.8547 39.2886 24.4833 40.4902 23.6743L39.9317 22.8448ZM40.5687 23.6088L59.3187 4.40155L58.6031 3.70301L39.8531 22.9103L40.5687 23.6088Z" fill="black" mask="url(#path-3-inside-1_12_74)"/>
</g>
<path d="M70.5509 6.96481L75.194 11.9911C75.6377 12.4714 75.297 13.25 74.6431 13.25H65.3569C64.703 13.25 64.3623 12.4714 64.806 11.9911L69.4491 6.96481C69.746 6.64337 70.254 6.64337 70.5509 6.96481Z" fill="#2400FF" stroke="black" stroke-width="0.5"/>
<path d="M42.9648 33.4491L47.9911 28.806C48.4714 28.3623 49.25 28.703 49.25 29.3569V38.6431C49.25 39.297 48.4714 39.6377 47.9911 39.194L42.9648 34.5509C42.6434 34.254 42.6434 33.746 42.9648 33.4491Z" fill="#14FF00" stroke="black" stroke-width="0.5"/>
<path d="M69.4491 62.0352L64.806 57.0089C64.3623 56.5286 64.703 55.75 65.3569 55.75L74.6431 55.75C75.297 55.75 75.6377 56.5286 75.194 57.0089L70.5509 62.0352C70.254 62.3566 69.746 62.3566 69.4491 62.0352Z" fill="#F2FF62" stroke="black" stroke-width="0.5"/>
<path d="M28.2197 44.0156V35.1836C28.2197 34.276 28.3027 32.8704 28.4688 30.9668L28.5352 30.1533L28.1865 30.1201C27.932 31.083 27.6885 31.9463 27.4561 32.71C27.2236 33.4736 27.0133 34.1377 26.8252 34.7021L22.3096 48H17.7939L13.0293 34.7021C12.819 34.193 12.6143 33.623 12.415 32.9922C12.2269 32.3503 12.0443 31.653 11.8672 30.9004L11.668 30.1201L11.3193 30.1533C11.43 31.1605 11.5075 32.0846 11.5518 32.9258C11.6071 33.7559 11.6348 34.5085 11.6348 35.1836V44.1318C12.4759 44.4417 13.0957 44.8568 13.4941 45.377L13.1621 48H6.50488L6.15625 45.377C6.57682 44.8568 7.20215 44.4417 8.03223 44.1318V28.4102C7.10254 28.0781 6.45508 27.6631 6.08984 27.165L6.42188 24.542H14.1748L19.1387 38.2383C19.4596 38.9798 19.7197 39.6992 19.9189 40.3965C20.1292 41.0827 20.2786 41.7357 20.3672 42.3555L20.4668 42.9365H20.9482C21.0257 41.5641 21.4352 39.998 22.1768 38.2383L26.8916 24.542H34.5117L34.8604 27.165C34.4951 27.6631 33.8477 28.0781 32.918 28.4102V43.9824C33.8034 44.3366 34.4287 44.735 34.7939 45.1777L34.4453 48H26.6924L26.3604 45.2109C26.7035 44.7682 27.3232 44.3698 28.2197 44.0156Z" fill="white"/>
<path d="M28.2197 44.0156L28.4034 44.4807L28.7197 44.3557V44.0156H28.2197ZM28.4688 30.9668L28.9669 31.0102L28.9671 31.0075L28.4688 30.9668ZM28.5352 30.1533L29.0335 30.194L29.0736 29.7023L28.5826 29.6556L28.5352 30.1533ZM28.1865 30.1201L28.2339 29.6224L27.8116 29.5821L27.7031 29.9923L28.1865 30.1201ZM26.8252 34.7021L27.2987 34.8629L27.2995 34.8603L26.8252 34.7021ZM22.3096 48V48.5H22.6678L22.783 48.1608L22.3096 48ZM17.7939 48L17.3232 48.1687L17.442 48.5H17.7939V48ZM13.0293 34.7021L13.5 34.5335L13.496 34.5223L13.4914 34.5113L13.0293 34.7021ZM12.415 32.9922L11.9351 33.1329L11.9382 33.1428L12.415 32.9922ZM11.8672 30.9004L12.354 30.7859L12.3516 30.7767L11.8672 30.9004ZM11.668 30.1201L12.1524 29.9964L12.0466 29.5818L11.6206 29.6224L11.668 30.1201ZM11.3193 30.1533L11.2719 29.6556L10.7669 29.7037L10.8223 30.2079L11.3193 30.1533ZM11.5518 32.9258L11.0524 32.9521L11.0529 32.959L11.5518 32.9258ZM11.6348 44.1318H11.1348V44.4805L11.4619 44.601L11.6348 44.1318ZM13.4941 45.377L13.9902 45.4397L14.016 45.236L13.8911 45.0729L13.4941 45.377ZM13.1621 48V48.5H13.6028L13.6582 48.0628L13.1621 48ZM6.50488 48L6.00924 48.0659L6.06694 48.5H6.50488V48ZM6.15625 45.377L5.76743 45.0626L5.63229 45.2297L5.66061 45.4428L6.15625 45.377ZM8.03223 44.1318L8.2071 44.6003L8.53223 44.4789V44.1318H8.03223ZM8.03223 28.4102H8.53223V28.0578L8.20039 27.9393L8.03223 28.4102ZM6.08984 27.165L5.5938 27.1022L5.56877 27.3L5.68664 27.4607L6.08984 27.165ZM6.42188 24.542V24.042H5.98118L5.92583 24.4792L6.42188 24.542ZM14.1748 24.542L14.6449 24.3716L14.5254 24.042H14.1748V24.542ZM19.1387 38.2383L18.6686 38.4086L18.6738 38.4229L18.6798 38.4369L19.1387 38.2383ZM19.9189 40.3965L19.4381 40.5339L19.4409 40.543L19.9189 40.3965ZM20.3672 42.3555L19.872 42.4262L19.8744 42.44L20.3672 42.3555ZM20.4668 42.9365L19.974 43.021L20.0452 43.4365H20.4668V42.9365ZM20.9482 42.9365V43.4365H21.4208L21.4474 42.9647L20.9482 42.9365ZM22.1768 38.2383L22.6375 38.4324L22.6441 38.4169L22.6495 38.401L22.1768 38.2383ZM26.8916 24.542V24.042H26.5349L26.4188 24.3792L26.8916 24.542ZM34.5117 24.542L35.0074 24.4761L34.9497 24.042H34.5117V24.542ZM34.8604 27.165L35.2636 27.4607L35.3825 27.2985L35.356 27.0992L34.8604 27.165ZM32.918 28.4102L32.7498 27.9393L32.418 28.0578V28.4102H32.918ZM32.918 43.9824H32.418V44.3209L32.7323 44.4467L32.918 43.9824ZM34.7939 45.1777L35.2902 45.239L35.3166 45.0255L35.1796 44.8595L34.7939 45.1777ZM34.4453 48V48.5H34.8873L34.9415 48.0613L34.4453 48ZM26.6924 48L26.1959 48.0591L26.2484 48.5H26.6924V48ZM26.3604 45.2109L25.9651 44.9047L25.8396 45.0666L25.8639 45.27L26.3604 45.2109ZM28.7197 44.0156V35.1836H27.7197V44.0156H28.7197ZM28.7197 35.1836C28.7197 34.299 28.801 32.9116 28.9669 31.0102L27.9706 30.9234C27.8044 32.8293 27.7197 34.253 27.7197 35.1836H28.7197ZM28.9671 31.0075L29.0335 30.194L28.0368 30.1126L27.9704 30.9261L28.9671 31.0075ZM28.5826 29.6556L28.2339 29.6224L28.1391 30.6179L28.4878 30.6511L28.5826 29.6556ZM27.7031 29.9923C27.4498 30.9506 27.208 31.8078 26.9777 32.5644L27.9344 32.8555C28.169 32.0847 28.4142 31.2154 28.6699 30.2479L27.7031 29.9923ZM26.9777 32.5644C26.7462 33.3252 26.5372 33.9849 26.3509 34.544L27.2995 34.8603C27.4894 34.2905 27.7011 33.6221 27.9344 32.8555L26.9777 32.5644ZM26.3517 34.5414L21.8361 47.8392L22.783 48.1608L27.2986 34.8629L26.3517 34.5414ZM22.3096 47.5H17.7939V48.5H22.3096V47.5ZM18.2646 47.8313L13.5 34.5335L12.5586 34.8708L17.3232 48.1687L18.2646 47.8313ZM13.4914 34.5113C13.2876 34.0177 13.0876 33.4614 12.8918 32.8416L11.9382 33.1428C12.141 33.7846 12.3505 34.3684 12.5672 34.893L13.4914 34.5113ZM12.8949 32.8516C12.7096 32.2195 12.5292 31.531 12.3539 30.7859L11.3805 31.0149C11.5593 31.775 11.7442 32.481 11.9352 33.1328L12.8949 32.8516ZM12.3516 30.7767L12.1524 29.9964L11.1835 30.2438L11.3827 31.0241L12.3516 30.7767ZM11.6206 29.6224L11.2719 29.6556L11.3667 30.6511L11.7154 30.6179L11.6206 29.6224ZM10.8223 30.2079C10.9322 31.2075 11.0088 32.122 11.0524 32.9521L12.0511 32.8995C12.0062 32.0472 11.9279 31.1135 11.8163 30.0987L10.8223 30.2079ZM11.0529 32.959C11.1076 33.7805 11.1348 34.5217 11.1348 35.1836H12.1348C12.1348 34.4952 12.1066 33.7312 12.0507 32.8925L11.0529 32.959ZM11.1348 35.1836V44.1318H12.1348V35.1836H11.1348ZM11.4619 44.601C12.2458 44.8898 12.7738 45.2588 13.0972 45.681L13.8911 45.0729C13.4176 44.4547 12.706 43.9936 11.8076 43.6627L11.4619 44.601ZM12.9981 45.3142L12.6661 47.9372L13.6582 48.0628L13.9902 45.4397L12.9981 45.3142ZM13.1621 47.5H6.50488V48.5H13.1621V47.5ZM7.00052 47.9341L6.65189 45.3111L5.66061 45.4428L6.00924 48.0659L7.00052 47.9341ZM6.54507 45.6913C6.89398 45.2598 7.43442 44.8887 8.2071 44.6003L7.85735 43.6634C6.96987 43.9947 6.25967 44.4538 5.76743 45.0626L6.54507 45.6913ZM8.53223 44.1318V28.4102H7.53223V44.1318H8.53223ZM8.20039 27.9393C7.31322 27.6224 6.77349 27.2518 6.49305 26.8694L5.68664 27.4607C6.13666 28.0744 6.89186 28.5338 7.86406 28.881L8.20039 27.9393ZM6.58589 27.2278L6.91792 24.6048L5.92583 24.4792L5.5938 27.1022L6.58589 27.2278ZM6.42188 25.042H14.1748V24.042H6.42188V25.042ZM13.7047 24.7124L18.6686 38.4086L19.6088 38.0679L14.6449 24.3716L13.7047 24.7124ZM18.6798 38.4369C18.9931 39.1607 19.2456 39.8597 19.4382 40.5338L20.3997 40.2591C20.1939 39.5388 19.9262 38.7989 19.5975 38.0397L18.6798 38.4369ZM19.4409 40.543C19.6447 41.2079 19.7878 41.8354 19.8722 42.4262L20.8622 42.2848C20.7695 41.6359 20.6138 40.9575 20.397 40.25L19.4409 40.543ZM19.8744 42.44L19.974 43.021L20.9596 42.852L20.86 42.271L19.8744 42.44ZM20.4668 43.4365H20.9482V42.4365H20.4668V43.4365ZM21.4474 42.9647C21.5207 41.6669 21.9102 40.1585 22.6375 38.4324L21.716 38.0441C20.9602 39.8376 20.5307 41.4614 20.449 42.9083L21.4474 42.9647ZM22.6495 38.401L27.3644 24.7047L26.4188 24.3792L21.704 38.0755L22.6495 38.401ZM26.8916 25.042H34.5117V24.042H26.8916V25.042ZM34.0161 24.6079L34.3647 27.2309L35.356 27.0992L35.0074 24.4761L34.0161 24.6079ZM34.4571 26.8694C34.1767 27.2518 33.637 27.6224 32.7498 27.9393L33.0861 28.881C34.0583 28.5338 34.8135 28.0744 35.2636 27.4607L34.4571 26.8694ZM32.418 28.4102V43.9824H33.418V28.4102H32.418ZM32.7323 44.4467C33.5854 44.7879 34.1207 45.1474 34.4083 45.4959L35.1796 44.8595C34.7367 44.3227 34.0214 43.8853 33.1037 43.5182L32.7323 44.4467ZM34.2977 45.1164L33.9491 47.9387L34.9415 48.0613L35.2902 45.239L34.2977 45.1164ZM34.4453 47.5H26.6924V48.5H34.4453V47.5ZM27.1889 47.9409L26.8568 45.1518L25.8639 45.27L26.1959 48.0591L27.1889 47.9409ZM26.7556 45.5172C27.0171 45.1798 27.5377 44.8227 28.4034 44.4807L28.036 43.5506C27.1088 43.9169 26.3898 44.3567 25.9651 44.9047L26.7556 45.5172Z" fill="black"/>
<path d="M117.482 25.7715C115.763 25.7715 114.427 26.4333 113.475 27.7568C112.522 29.068 112.046 31.3564 112.046 34.6221C112.046 40.8812 113.771 44.0107 117.223 44.0107C118.571 44.0107 119.783 43.7943 120.859 43.3613V39.0752C119.684 38.6794 118.886 38.2093 118.466 37.665L118.855 34.6592H127.743L128.133 37.665C127.799 38.0732 127.199 38.4629 126.333 38.834V45.8662C125.121 46.7568 123.785 47.3877 122.325 47.7588C120.866 48.1175 119.047 48.2969 116.87 48.2969C113.246 48.2969 110.586 47.2702 108.892 45.2168C107.197 43.151 106.35 39.7926 106.35 35.1416C106.35 30.4906 107.358 27.0518 109.374 24.8252C111.403 22.5863 114.167 21.4668 117.668 21.4668C121.181 21.4668 124.045 22.2708 126.259 23.8789V24.7324C126.259 25.0169 126.215 25.4561 126.129 26.0498C126.055 26.6312 125.943 27.2435 125.795 27.8867C125.646 28.5176 125.461 29.0557 125.238 29.501L121.731 29.501C121.348 28.7588 121.094 27.7074 120.971 26.3467C119.895 25.9632 118.732 25.7715 117.482 25.7715Z" fill="white"/>
<path d="M113.475 27.7568L113.879 28.0507L113.88 28.0489L113.475 27.7568ZM120.859 43.3613L121.046 43.8252L121.359 43.6991V43.3613H120.859ZM120.859 39.0752H121.359V38.716L121.019 38.6014L120.859 39.0752ZM118.466 37.665L117.97 37.6008L117.943 37.8066L118.07 37.9708L118.466 37.665ZM118.855 34.6592V34.1592H118.416L118.36 34.5949L118.855 34.6592ZM127.743 34.6592L128.239 34.5949L128.183 34.1592H127.743V34.6592ZM128.133 37.665L128.52 37.9817L128.656 37.8147L128.629 37.6008L128.133 37.665ZM126.333 38.834L126.136 38.3744L125.833 38.5043V38.834H126.333ZM126.333 45.8662L126.629 46.2692L126.833 46.1193V45.8662H126.333ZM122.325 47.7588L122.445 48.2444L122.448 48.2434L122.325 47.7588ZM108.892 45.2168L108.505 45.5339L108.506 45.5351L108.892 45.2168ZM109.374 24.8252L109.003 24.4895L109.003 24.4896L109.374 24.8252ZM126.259 23.8789H126.759V23.6241L126.553 23.4743L126.259 23.8789ZM126.129 26.0498L125.634 25.9776L125.633 25.9865L126.129 26.0498ZM125.795 27.8867L126.282 28.0012L126.282 27.9991L125.795 27.8867ZM125.238 29.501V30.001H125.547L125.685 29.7246L125.238 29.501ZM121.731 29.501L121.287 29.7305L121.427 30.001H121.731V29.501ZM120.971 26.3467L121.469 26.3014L121.44 25.983L121.139 25.8757L120.971 26.3467ZM117.482 25.2715C115.612 25.2715 114.121 26.0025 113.069 27.4648L113.88 28.0489C114.733 26.864 115.914 26.2715 117.482 26.2715V25.2715ZM113.07 27.463C112.018 28.9109 111.546 31.3399 111.546 34.6221H112.546C112.546 31.373 113.026 29.2252 113.879 28.0507L113.07 27.463ZM111.546 34.6221C111.546 37.7812 111.979 40.2298 112.902 41.905C113.368 42.7502 113.964 43.4077 114.699 43.8518C115.435 44.2966 116.282 44.5107 117.223 44.5107V43.5107C116.438 43.5107 115.775 43.3337 115.216 42.9961C114.657 42.6579 114.175 42.1418 113.778 41.4221C112.976 39.9678 112.546 37.7221 112.546 34.6221H111.546ZM117.223 44.5107C118.625 44.5107 119.902 44.2856 121.046 43.8252L120.673 42.8975C119.665 43.303 118.517 43.5107 117.223 43.5107V44.5107ZM121.359 43.3613V39.0752H120.359V43.3613H121.359ZM121.019 38.6014C119.872 38.2151 119.19 37.7847 118.861 37.3593L118.07 37.9708C118.583 38.634 119.496 39.1436 120.7 39.549L121.019 38.6014ZM118.962 37.7293L119.351 34.7235L118.36 34.5949L117.97 37.6008L118.962 37.7293ZM118.855 35.1592H127.743V34.1592H118.855V35.1592ZM127.247 34.7235L127.637 37.7293L128.629 37.6008L128.239 34.5949L127.247 34.7235ZM127.746 37.3484C127.489 37.6629 126.978 38.0137 126.136 38.3744L126.53 39.2936C127.42 38.912 128.109 38.4835 128.52 37.9817L127.746 37.3484ZM125.833 38.834V45.8662H126.833V38.834H125.833ZM126.037 45.4633C124.877 46.3158 123.599 46.9189 122.202 47.2742L122.448 48.2434C123.97 47.8565 125.365 47.1979 126.629 46.2692L126.037 45.4633ZM122.206 47.2732C120.798 47.6191 119.023 47.7969 116.87 47.7969V48.7969C119.071 48.7969 120.933 48.6159 122.445 48.2443L122.206 47.2732ZM116.87 47.7969C113.338 47.7969 110.846 46.7991 109.277 44.8985L108.506 45.5351C110.327 47.7413 113.154 48.7969 116.87 48.7969V47.7969ZM109.278 44.8997C107.694 42.9689 106.85 39.7543 106.85 35.1416H105.85C105.85 39.831 106.7 43.3332 108.505 45.5339L109.278 44.8997ZM106.85 35.1416C106.85 30.5492 107.847 27.2563 109.745 25.1608L109.003 24.4896C106.868 26.8472 105.85 30.4319 105.85 35.1416H106.85ZM109.745 25.1609C111.663 23.0435 114.284 21.9668 117.668 21.9668V20.9668C114.051 20.9668 111.142 22.129 109.003 24.4895L109.745 25.1609ZM117.668 21.9668C121.105 21.9668 123.858 22.753 125.965 24.2835L126.553 23.4743C124.232 21.7887 121.257 20.9668 117.668 20.9668V21.9668ZM125.759 23.8789V24.7324H126.759V23.8789H125.759ZM125.759 24.7324C125.759 24.9786 125.72 25.3876 125.634 25.9777L126.624 26.122C126.711 25.5245 126.759 25.0553 126.759 24.7324H125.759ZM125.633 25.9865C125.561 26.5495 125.453 27.1453 125.308 27.7743L126.282 27.9991C126.434 27.3417 126.548 26.7129 126.625 26.1131L125.633 25.9865ZM125.308 27.7722C125.166 28.3759 124.992 28.8754 124.791 29.2774L125.685 29.7246C125.93 29.236 126.127 28.6592 126.282 28.0012L125.308 27.7722ZM125.238 29.001L121.731 29.001V30.001L125.238 30.001V29.001ZM122.176 29.2715C121.835 28.6116 121.59 27.6335 121.469 26.3014L120.473 26.3919C120.599 27.7812 120.861 28.9059 121.287 29.7305L122.176 29.2715ZM121.139 25.8757C120.004 25.4713 118.784 25.2715 117.482 25.2715V26.2715C118.68 26.2715 119.785 26.4551 120.803 26.8177L121.139 25.8757Z" fill="black"/>
<path d="M98.0352 34.5509L93.0089 39.194C92.5286 39.6377 91.75 39.297 91.75 38.6431V29.3569C91.75 28.703 92.5286 28.3623 93.0089 28.806L98.0352 33.4491C98.3566 33.746 98.3566 34.254 98.0352 34.5509Z" fill="#FF0000" stroke="black" stroke-width="0.5"/>
<defs>
<filter id="filter0_d_12_74" x="0" y="12" width="138" height="51" filterUnits="userSpaceOnUse" color-interpolation-filters="sRGB">
<feFlood flood-opacity="0" result="BackgroundImageFix"/>
<feColorMatrix in="SourceAlpha" type="matrix" values="0 0 0 0 0 0 0 0 0 0 0 0 0 0 0 0 0 0 127 0" result="hardAlpha"/>
<feOffset dx="1" dy="1"/>
<feGaussianBlur stdDeviation="1.5"/>
<feComposite in2="hardAlpha" operator="out"/>
<feColorMatrix type="matrix" values="0 0 0 0 0 0 0 0 0 0 0 0 0 0 0 0 0 0 0.5 0"/>
<feBlend mode="normal" in2="BackgroundImageFix" result="effect1_dropShadow_12_74"/>
<feBlend mode="normal" in="SourceGraphic" in2="effect1_dropShadow_12_74" result="shape"/>
</filter>
<filter id="filter1_d_12_74" x="36" y="0" width="71" height="71" filterUnits="userSpaceOnUse" color-interpolation-filters="sRGB">
<feFlood flood-opacity="0" result="BackgroundImageFix"/>
<feColorMatrix in="SourceAlpha" type="matrix" values="0 0 0 0 0 0 0 0 0 0 0 0 0 0 0 0 0 0 127 0" result="hardAlpha"/>
<feOffset dx="1" dy="1"/>
<feGaussianBlur stdDeviation="1.5"/>
<feComposite in2="hardAlpha" operator="out"/>
<feColorMatrix type="matrix" values="0 0 0 0 0 0 0 0 0 0 0 0 0 0 0 0 0 0 0.5 0"/>
<feBlend mode="normal" in2="BackgroundImageFix" result="effect1_dropShadow_12_74"/>
<feBlend mode="normal" in="SourceGraphic" in2="effect1_dropShadow_12_74" result="shape"/>
</filter>
<linearGradient id="paint0_linear_12_74" x1="71.8989" y1="16.408" x2="72.5847" y2="58.9501" gradientUnits="userSpaceOnUse">
<stop offset="0.0304227" stop-color="white"/>
<stop offset="0.954571" stop-color="#FFF4F4" stop-opacity="0"/>
</linearGradient>
<linearGradient id="paint1_linear_12_74" x1="2" y1="37" x2="134" y2="37" gradientUnits="userSpaceOnUse">
<stop/>
<stop offset="0.491113" stop-color="#00C2FF"/>
<stop offset="1"/>
</linearGradient>
<linearGradient id="paint2_linear_12_74" x1="38" y1="2" x2="103" y2="67" gradientUnits="userSpaceOnUse">
<stop stop-color="#74CDFF"/>
<stop offset="0.468681" stop-color="#38B7FF"/>
<stop offset="1" stop-color="#00263A"/>
</linearGradient>
</defs>
</svg>
