<svg width="243" height="66" viewBox="0 0 243 66" fill="none" xmlns="http://www.w3.org/2000/svg">
<g filter="url(#filter0_d_12_73)">
<rect x="2" y="12" width="237" height="45" rx="4" fill="black"/>
<rect x="2" y="12" width="237" height="45" rx="4" fill="url(#paint0_linear_12_73)" fill-opacity="0.27"/>
</g>
<path fill-rule="evenodd" clip-rule="evenodd" d="M5 12C3.34315 12 2 13.3431 2 15H239C239 13.3431 237.657 12 236 12H5ZM239 54H2C2 55.6569 3.34315 57 5 57H236C237.657 57 239 55.6569 239 54Z" fill="#00519C"/>
<path fill-rule="evenodd" clip-rule="evenodd" d="M5 12C3.34315 12 2 13.3431 2 15H239C239 13.3431 237.657 12 236 12H5ZM239 54H2C2 55.6569 3.34315 57 5 57H236C237.657 57 239 55.6569 239 54Z" fill="url(#paint1_linear_12_73)" fill-opacity="0.5"/>
<g filter="url(#filter1_d_12_73)">
<mask id="path-3-inside-1_12_73" fill="white">
<path fill-rule="evenodd" clip-rule="evenodd" d="M109.88 3.51128C110.788 2.57899 112.057 2 113.462 2H125.062C127.823 2 130.062 4.23858 130.062 7V20.84H145C147.761 20.84 150 23.0786 150 25.84V37.44C150 40.2014 147.761 42.44 145 42.44H130.062V57C130.062 59.7614 127.823 62 125.062 62H113.462C110.7 62 108.462 59.7614 108.462 57V42.44H95C92.2386 42.44 90 40.2014 90 37.44V25.84C90 24.6942 90.3854 23.6385 91.0336 22.7953L90.9231 22.7692L109.846 3.38462L109.88 3.51128Z"/>
</mask>
<path fill-rule="evenodd" clip-rule="evenodd" d="M109.88 3.51128C110.788 2.57899 112.057 2 113.462 2H125.062C127.823 2 130.062 4.23858 130.062 7V20.84H145C147.761 20.84 150 23.0786 150 25.84V37.44C150 40.2014 147.761 42.44 145 42.44H130.062V57C130.062 59.7614 127.823 62 125.062 62H113.462C110.7 62 108.462 59.7614 108.462 57V42.44H95C92.2386 42.44 90 40.2014 90 37.44V25.84C90 24.6942 90.3854 23.6385 91.0336 22.7953L90.9231 22.7692L109.846 3.38462L109.88 3.51128Z" fill="white"/>
<path fill-rule="evenodd" clip-rule="evenodd" d="M109.88 3.51128C110.788 2.57899 112.057 2 113.462 2H125.062C127.823 2 130.062 4.23858 130.062 7V20.84H145C147.761 20.84 150 23.0786 150 25.84V37.44C150 40.2014 147.761 42.44 145 42.44H130.062V57C130.062 59.7614 127.823 62 125.062 62H113.462C110.7 62 108.462 59.7614 108.462 57V42.44H95C92.2386 42.44 90 40.2014 90 37.44V25.84C90 24.6942 90.3854 23.6385 91.0336 22.7953L90.9231 22.7692L109.846 3.38462L109.88 3.51128Z" fill="url(#paint2_linear_12_73)"/>
<path d="M109.88 3.51128L109.397 3.6396L109.623 4.49164L110.238 3.86018L109.88 3.51128ZM130.062 20.84H129.562V21.34H130.062V20.84ZM130.062 42.44V41.94H129.562V42.44H130.062ZM108.462 42.44H108.962V41.94H108.462V42.44ZM91.0336 22.7953L91.43 23.1L91.9018 22.4863L91.1484 22.3086L91.0336 22.7953ZM90.9231 22.7692L90.5653 22.42L89.9474 23.0529L90.8083 23.2559L90.9231 22.7692ZM109.846 3.38462L110.329 3.2563L110.103 2.40528L109.488 3.03535L109.846 3.38462ZM113.462 1.5C111.917 1.5 110.52 2.13746 109.522 3.16238L110.238 3.86018C111.056 3.02051 112.198 2.5 113.462 2.5V1.5ZM125.062 1.5H113.462V2.5H125.062V1.5ZM130.562 7C130.562 3.96243 128.099 1.5 125.062 1.5V2.5C127.547 2.5 129.562 4.51472 129.562 7H130.562ZM130.562 20.84V7H129.562V20.84H130.562ZM145 20.34H130.062V21.34H145V20.34ZM150.5 25.84C150.5 22.8024 148.038 20.34 145 20.34V21.34C147.485 21.34 149.5 23.3547 149.5 25.84H150.5ZM150.5 37.44V25.84H149.5V37.44H150.5ZM145 42.94C148.038 42.94 150.5 40.4776 150.5 37.44H149.5C149.5 39.9253 147.485 41.94 145 41.94V42.94ZM130.062 42.94H145V41.94H130.062V42.94ZM130.562 57V42.44H129.562V57H130.562ZM125.062 62.5C128.099 62.5 130.562 60.0376 130.562 57H129.562C129.562 59.4853 127.547 61.5 125.062 61.5V62.5ZM113.462 62.5H125.062V61.5H113.462V62.5ZM107.962 57C107.962 60.0376 110.424 62.5 113.462 62.5V61.5C110.976 61.5 108.962 59.4853 108.962 57H107.962ZM107.962 42.44V57H108.962V42.44H107.962ZM95 42.94H108.462V41.94H95V42.94ZM89.5 37.44C89.5 40.4776 91.9624 42.94 95 42.94V41.94C92.5147 41.94 90.5 39.9253 90.5 37.44H89.5ZM89.5 25.84V37.44H90.5V25.84H89.5ZM90.6372 22.4906C89.9242 23.4181 89.5 24.5802 89.5 25.84H90.5C90.5 24.8083 90.8466 23.8589 91.43 23.1L90.6372 22.4906ZM91.1484 22.3086L91.0378 22.2826L90.8083 23.2559L90.9189 23.2819L91.1484 22.3086ZM91.2809 23.1185L110.204 3.73388L109.488 3.03535L90.5653 22.42L91.2809 23.1185ZM109.363 3.51293L109.397 3.6396L110.363 3.38296L110.329 3.2563L109.363 3.51293Z" fill="black" mask="url(#path-3-inside-1_12_73)"/>
</g>
<path d="M120.551 5.96481L125.194 10.9911C125.638 11.4714 125.297 12.25 124.643 12.25H115.357C114.703 12.25 114.362 11.4714 114.806 10.9911L119.449 5.96481C119.746 5.64337 120.254 5.64337 120.551 5.96481Z" fill="#2400FF" stroke="black" stroke-width="0.5"/>
<path d="M93.9648 31.4491L98.9911 26.806C99.4714 26.3623 100.25 26.703 100.25 27.3569V36.6431C100.25 37.297 99.4714 37.6377 98.9911 37.194L93.9648 32.5509C93.6434 32.254 93.6434 31.746 93.9648 31.4491Z" fill="#14FF00" stroke="black" stroke-width="0.5"/>
<path d="M119.449 58.0352L114.806 53.0089C114.362 52.5286 114.703 51.75 115.357 51.75L124.643 51.75C125.297 51.75 125.638 52.5286 125.194 53.0089L120.551 58.0352C120.254 58.3566 119.746 58.3566 119.449 58.0352Z" fill="#F2FF62" stroke="black" stroke-width="0.5"/>
<path d="M24.5395 21.1934V45H21.7172V23.6504L18.0814 37.0146H15.2592L11.6234 23.6504V45H8.90078V21.1934H13.6986L16.7865 33.3789L19.8412 21.1934H24.5395ZM40.2133 42.626V45H39.184C38.7302 45 38.2599 44.8783 37.7729 44.6348C37.2859 44.3913 36.9041 43.9596 36.6274 43.3398C36.2068 43.9486 35.6424 44.4189 34.934 44.751C34.2368 45.0719 33.3071 45.2324 32.145 45.2324C31.5362 45.2324 30.922 45.1715 30.3022 45.0498C29.6935 44.9281 29.1511 44.679 28.6752 44.3027C28.1993 43.9264 27.812 43.4118 27.5131 42.7588C27.2254 42.0947 27.0815 41.2425 27.0815 40.2021C27.0815 38.3649 27.6127 36.9593 28.6752 35.9854C29.7488 35.0114 31.2374 34.5244 33.1411 34.5244H35.8139V32.6982C35.8139 31.9678 35.6036 31.3701 35.183 30.9053C34.7735 30.4404 34.1371 30.208 33.2739 30.208C32.2999 30.208 31.4477 30.2689 30.7172 30.3906C29.9978 30.5013 29.2065 30.6784 28.3432 30.9219V28.4482C28.9741 28.2601 29.6824 28.0996 30.4682 27.9668C31.2651 27.834 32.0841 27.7676 32.9252 27.7676C35.1056 27.7676 36.6218 28.2158 37.4741 29.1123C37.9168 29.5771 38.2322 30.1637 38.4203 30.8721C38.6085 31.5693 38.7026 32.4049 38.7026 33.3789V41.5303C38.7026 41.8734 38.8133 42.1445 39.0346 42.3438C39.267 42.5319 39.6599 42.626 40.2133 42.626ZM32.8256 42.792C33.8439 42.792 34.5965 42.5264 35.0834 41.9951C35.5704 41.4528 35.8139 40.9271 35.8139 40.418V36.832H32.9584C32.1726 36.832 31.4864 37.0977 30.8998 37.6289C30.3243 38.1602 30.0366 38.9515 30.0366 40.0029C30.0366 41.0654 30.2745 41.7959 30.7504 42.1943C31.2263 42.5928 31.9181 42.792 32.8256 42.792ZM45.312 34.5244V45H42.4233V28H44.7973L45.0132 29.7266C45.3895 29.14 45.8598 28.6696 46.4243 28.3154C46.9998 27.9502 47.7081 27.7676 48.5493 27.7676C48.9588 27.7676 49.3074 27.7842 49.5952 27.8174C49.894 27.8506 50.143 27.8893 50.3423 27.9336V30.9551C50.0545 30.8887 49.7225 30.8223 49.3462 30.7559C48.9699 30.6895 48.6212 30.6562 48.3003 30.6562C47.5919 30.6562 47.0164 30.8444 46.5737 31.2207C46.1421 31.5859 45.8211 32.0674 45.6108 32.665C45.4116 33.2516 45.312 33.8714 45.312 34.5244ZM57.7486 34.5576L63.7417 45H60.3716L55.7896 36.5332L54.7603 37.7285V45H51.8716V21.1934H54.7603V34.126L59.9566 28H63.4927L57.7486 34.5576ZM76.0621 34.9727V37.5127H67.2964C67.3186 38.6305 67.4071 39.5326 67.5621 40.2188C67.717 40.9049 67.9162 41.4417 68.1597 41.8291C68.4143 42.2054 68.7076 42.46 69.0396 42.5928C69.3716 42.7256 69.7535 42.792 70.1851 42.792C71.1369 42.792 72.0002 42.7311 72.775 42.6094C73.5608 42.4766 74.2193 42.3548 74.7505 42.2441V44.7012C74.1972 44.8561 73.5054 44.9834 72.6754 45.083C71.8563 45.1826 71.1425 45.2324 70.5337 45.2324C69.5598 45.2324 68.691 45.1328 67.9273 44.9336C67.1636 44.7233 66.5217 44.3138 66.0015 43.7051C65.4813 43.0964 65.0829 42.222 64.8062 41.082C64.5406 39.931 64.4078 38.4036 64.4078 36.5C64.4078 33.4121 64.928 31.1654 65.9683 29.7598C66.4885 29.0625 67.136 28.5589 67.9107 28.249C68.6854 27.9281 69.5819 27.7676 70.6002 27.7676C72.5481 27.7676 73.9426 28.4095 74.7837 29.6934C75.636 30.9661 76.0621 32.7259 76.0621 34.9727ZM70.5337 30.1748C69.9804 30.1748 69.5155 30.2523 69.1392 30.4072C68.7629 30.5622 68.4475 30.8333 68.1929 31.2207C67.6949 31.9733 67.4071 33.3014 67.3296 35.2051H73.2398V34.292C73.2398 32.9971 73.0406 31.9899 72.6421 31.2705C72.2548 30.54 71.552 30.1748 70.5337 30.1748ZM85.9586 28V30.5566H82.0074V40.916C82.0074 41.3255 82.1292 41.7406 82.3727 42.1611C82.6272 42.5817 83.0755 42.792 83.7174 42.792C84.2376 42.792 84.6747 42.7533 85.0289 42.6758C85.3941 42.5983 85.704 42.5208 85.9586 42.4434V44.834C85.7262 44.9004 85.3333 44.9834 84.7799 45.083C84.2265 45.1826 83.6454 45.2324 83.0367 45.2324C81.6975 45.2324 80.707 44.8118 80.065 43.9707C79.4342 43.1296 79.1188 42.056 79.1188 40.75V30.5566H76.9107V28H79.1188V23.916H82.0074V28H85.9586Z" fill="white"/>
<path d="M24.5395 21.1934H25.0395V20.6934H24.5395V21.1934ZM24.5395 45V45.5H25.0395V45H24.5395ZM21.7172 45H21.2172V45.5H21.7172V45ZM21.7172 23.6504H22.2172L21.2347 23.5191L21.7172 23.6504ZM18.0814 37.0146V37.5146H18.4636L18.5639 37.1459L18.0814 37.0146ZM15.2592 37.0146L14.7767 37.1459L14.877 37.5146H15.2592V37.0146ZM11.6234 23.6504L12.1059 23.5191L11.1234 23.6504H11.6234ZM11.6234 45V45.5H12.1234V45H11.6234ZM8.90078 45H8.40078V45.5H8.90078V45ZM8.90078 21.1934V20.6934H8.40078V21.1934H8.90078ZM13.6986 21.1934L14.1833 21.0705L14.0877 20.6934H13.6986V21.1934ZM16.7865 33.3789L16.3018 33.5017L17.2715 33.5005L16.7865 33.3789ZM19.8412 21.1934V20.6934H19.4511L19.3562 21.0718L19.8412 21.1934ZM24.0395 21.1934V45H25.0395V21.1934H24.0395ZM24.5395 44.5H21.7172V45.5H24.5395V44.5ZM22.2172 45V23.6504H21.2172V45H22.2172ZM21.2347 23.5191L17.599 36.8834L18.5639 37.1459L22.1997 23.7816L21.2347 23.5191ZM18.0814 36.5146H15.2592V37.5146H18.0814V36.5146ZM15.7416 36.8834L12.1059 23.5191L11.141 23.7816L14.7767 37.1459L15.7416 36.8834ZM11.1234 23.6504V45H12.1234V23.6504H11.1234ZM11.6234 44.5H8.90078V45.5H11.6234V44.5ZM9.40078 45V21.1934H8.40078V45H9.40078ZM8.90078 21.6934H13.6986V20.6934H8.90078V21.6934ZM13.214 21.3162L16.3018 33.5017L17.2712 33.2561L14.1833 21.0705L13.214 21.3162ZM17.2715 33.5005L20.3262 21.3149L19.3562 21.0718L16.3015 33.2573L17.2715 33.5005ZM19.8412 21.6934H24.5395V20.6934H19.8412V21.6934ZM40.2133 42.626H40.7133V42.126H40.2133V42.626ZM40.2133 45V45.5H40.7133V45H40.2133ZM36.6274 43.3398L37.0839 43.136L36.7215 42.3241L36.216 43.0556L36.6274 43.3398ZM34.934 44.751L35.1431 45.2052L35.1462 45.2037L34.934 44.751ZM30.3022 45.0498L30.2041 45.5401L30.2058 45.5404L30.3022 45.0498ZM27.5131 42.7588L27.0543 42.9576L27.0585 42.9669L27.5131 42.7588ZM28.6752 35.9854L28.3393 35.615L28.3374 35.6168L28.6752 35.9854ZM35.8139 34.5244V35.0244H36.3139V34.5244H35.8139ZM35.183 30.9053L34.8078 31.2358L34.8123 31.2407L35.183 30.9053ZM30.7172 30.3906L30.7933 30.8848L30.7994 30.8838L30.7172 30.3906ZM28.3432 30.9219H27.8432V31.5824L28.4789 31.4031L28.3432 30.9219ZM28.3432 28.4482L28.2003 27.9691L27.8432 28.0756V28.4482H28.3432ZM30.4682 27.9668L30.386 27.4736L30.3849 27.4738L30.4682 27.9668ZM37.4741 29.1123L37.1117 29.4568L37.112 29.4571L37.4741 29.1123ZM38.4203 30.8721L37.9371 31.0004L37.9376 31.0023L38.4203 30.8721ZM39.0346 42.3438L38.7001 42.7154L38.7098 42.7241L38.72 42.7324L39.0346 42.3438ZM35.0834 41.9951L35.452 42.333L35.4555 42.3292L35.0834 41.9951ZM35.8139 36.832H36.3139V36.332H35.8139V36.832ZM30.8998 37.6289L30.5642 37.2583L30.5607 37.2615L30.8998 37.6289ZM39.7133 42.626V45H40.7133V42.626H39.7133ZM40.2133 44.5H39.184V45.5H40.2133V44.5ZM39.184 44.5C38.8219 44.5 38.4278 44.4032 37.9965 44.1876L37.5493 45.082C38.092 45.3533 38.6386 45.5 39.184 45.5V44.5ZM37.9965 44.1876C37.6365 44.0075 37.3254 43.6769 37.0839 43.136L36.1708 43.5437C36.4827 44.2423 36.9353 44.775 37.5493 45.082L37.9965 44.1876ZM36.216 43.0556C35.8487 43.5873 35.3548 44.0015 34.7218 44.2982L35.1462 45.2037C35.9299 44.8364 36.565 44.3098 37.0387 43.6241L36.216 43.0556ZM34.7249 44.2968C34.1182 44.5761 33.2685 44.7324 32.145 44.7324V45.7324C33.3456 45.7324 34.3554 45.5678 35.1431 45.2052L34.7249 44.2968ZM32.145 44.7324C31.5698 44.7324 30.9878 44.6749 30.3986 44.5592L30.2058 45.5404C30.8562 45.6682 31.5027 45.7324 32.145 45.7324V44.7324ZM30.4002 44.5595C29.8671 44.4529 29.3978 44.2367 28.9853 43.9105L28.3651 44.6949C28.9044 45.1214 29.5198 45.4032 30.2041 45.5401L30.4002 44.5595ZM28.9853 43.9105C28.5819 43.5916 28.2397 43.1449 27.9678 42.5507L27.0585 42.9669C27.3842 43.6786 27.8167 44.2613 28.3651 44.6949L28.9853 43.9105ZM27.9719 42.56C27.7205 41.9798 27.5815 41.2017 27.5815 40.2021H26.5815C26.5815 41.2833 26.7302 42.2096 27.0543 42.9576L27.9719 42.56ZM27.5815 40.2021C27.5815 38.4641 28.0807 37.2087 29.0131 36.3539L28.3374 35.6168C27.1448 36.71 26.5815 38.2657 26.5815 40.2021H27.5815ZM29.0112 36.3557C29.967 35.4885 31.3218 35.0244 33.1411 35.0244V34.0244C31.153 34.0244 29.5306 34.5343 28.3393 35.615L29.0112 36.3557ZM33.1411 35.0244H35.8139V34.0244H33.1411V35.0244ZM36.3139 34.5244V32.6982H35.3139V34.5244H36.3139ZM36.3139 32.6982C36.3139 31.8656 36.0711 31.1416 35.5538 30.5698L34.8123 31.2407C35.1361 31.5987 35.3139 32.0699 35.3139 32.6982H36.3139ZM35.5582 30.5748C35.0209 29.9648 34.2221 29.708 33.2739 29.708V30.708C34.0522 30.708 34.5262 30.916 34.8079 31.2358L35.5582 30.5748ZM33.2739 29.708C32.2804 29.708 31.3996 29.77 30.635 29.8974L30.7994 30.8838C31.4958 30.7678 32.3194 30.708 33.2739 30.708V29.708ZM30.6412 29.8964C29.8977 30.0108 29.0861 30.1928 28.2075 30.4407L28.4789 31.4031C29.3269 31.1639 30.098 30.9918 30.7933 30.8848L30.6412 29.8964ZM28.8432 30.9219V28.4482H27.8432V30.9219H28.8432ZM28.4861 28.9274C29.0938 28.7461 29.7818 28.5899 30.5515 28.4598L30.3849 27.4738C29.583 27.6093 28.8543 27.7741 28.2003 27.9691L28.4861 28.9274ZM30.5504 28.46C31.319 28.3319 32.1105 28.2676 32.9252 28.2676V27.2676C32.0577 27.2676 31.2111 27.3361 30.386 27.4736L30.5504 28.46ZM32.9252 28.2676C35.0657 28.2676 36.4046 28.713 37.1117 29.4568L37.8364 28.7678C36.8391 27.7187 35.1455 27.2676 32.9252 27.2676V28.2676ZM37.112 29.4571C37.489 29.853 37.7674 30.3616 37.9371 31.0004L38.9036 30.7437C38.697 29.9658 38.3445 29.3013 37.8361 28.7675L37.112 29.4571ZM37.9376 31.0023C38.1111 31.6453 38.2026 32.4347 38.2026 33.3789H39.2026C39.2026 32.3752 39.1059 31.4934 38.9031 30.7418L37.9376 31.0023ZM38.2026 33.3789V41.5303H39.2026V33.3789H38.2026ZM38.2026 41.5303C38.2026 41.9913 38.357 42.4065 38.7001 42.7154L39.3691 41.9721C39.2696 41.8825 39.2026 41.7554 39.2026 41.5303H38.2026ZM38.72 42.7324C39.0906 43.0324 39.6308 43.126 40.2133 43.126V42.126C39.6891 42.126 39.4435 42.0314 39.3492 41.9551L38.72 42.7324ZM32.8256 43.292C33.9247 43.292 34.8365 43.0044 35.452 42.333L34.7149 41.6573C34.3564 42.0483 33.763 42.292 32.8256 42.292V43.292ZM35.4555 42.3292C35.9896 41.7343 36.3139 41.0946 36.3139 40.418H35.3139C35.3139 40.7596 35.1512 41.1713 34.7114 41.6611L35.4555 42.3292ZM36.3139 40.418V36.832H35.3139V40.418H36.3139ZM35.8139 36.332H32.9584V37.332H35.8139V36.332ZM32.9584 36.332C32.0476 36.332 31.242 36.6444 30.5642 37.2583L31.2355 37.9995C31.7308 37.5509 32.2977 37.332 32.9584 37.332V36.332ZM30.5607 37.2615C29.851 37.9166 29.5366 38.8618 29.5366 40.0029H30.5366C30.5366 39.0412 30.7977 38.4037 31.239 37.9963L30.5607 37.2615ZM29.5366 40.0029C29.5366 41.1122 29.7804 42.0343 30.4295 42.5777L31.0714 41.811C30.7686 41.5575 30.5366 41.0187 30.5366 40.0029H29.5366ZM30.4295 42.5777C31.0289 43.0796 31.8535 43.292 32.8256 43.292V42.292C31.9826 42.292 31.4238 42.106 31.0714 41.811L30.4295 42.5777ZM45.312 45V45.5H45.812V45H45.312ZM42.4233 45H41.9233V45.5H42.4233V45ZM42.4233 28V27.5H41.9233V28H42.4233ZM44.7973 28L45.2935 27.938L45.2387 27.5H44.7973V28ZM45.0132 29.7266L44.517 29.7886L44.6883 31.1589L45.434 29.9965L45.0132 29.7266ZM46.4243 28.3154L46.69 28.739L46.6922 28.7376L46.4243 28.3154ZM49.5952 27.8174L49.5379 28.3141L49.54 28.3143L49.5952 27.8174ZM50.3423 27.9336H50.8423V27.5325L50.4507 27.4455L50.3423 27.9336ZM50.3423 30.9551L50.2298 31.4423L50.8423 31.5836V30.9551H50.3423ZM46.5737 31.2207L46.8967 31.6024L46.8975 31.6017L46.5737 31.2207ZM45.6108 32.665L45.1391 32.4991L45.1374 32.5042L45.6108 32.665ZM44.812 34.5244V45H45.812V34.5244H44.812ZM45.312 44.5H42.4233V45.5H45.312V44.5ZM42.9233 45V28H41.9233V45H42.9233ZM42.4233 28.5H44.7973V27.5H42.4233V28.5ZM44.3012 28.062L44.517 29.7886L45.5093 29.6645L45.2935 27.938L44.3012 28.062ZM45.434 29.9965C45.7724 29.469 46.1908 29.0522 46.69 28.739L46.1585 27.8919C45.5288 28.287 45.0065 28.8109 44.5923 29.4566L45.434 29.9965ZM46.6922 28.7376C47.1707 28.4339 47.7808 28.2676 48.5493 28.2676V27.2676C47.6355 27.2676 46.8289 27.4665 46.1564 27.8933L46.6922 28.7376ZM48.5493 28.2676C48.9468 28.2676 49.2751 28.2838 49.5379 28.3141L49.6525 27.3207C49.3397 27.2846 48.9708 27.2676 48.5493 27.2676V28.2676ZM49.54 28.3143C49.8284 28.3464 50.0583 28.3827 50.2338 28.4217L50.4507 27.4455C50.2278 27.396 49.9596 27.3548 49.6504 27.3204L49.54 28.3143ZM49.8423 27.9336V30.9551H50.8423V27.9336H49.8423ZM50.4547 30.4679C50.1564 30.3991 49.8156 30.331 49.4331 30.2635L49.2593 31.2483C49.6294 31.3136 49.9526 31.3783 50.2298 31.4423L50.4547 30.4679ZM49.4331 30.2635C49.0333 30.1929 48.6552 30.1562 48.3003 30.1562V31.1562C48.5872 31.1562 48.9064 31.186 49.2593 31.2483L49.4331 30.2635ZM48.3003 30.1562C47.5003 30.1562 46.8017 30.3707 46.2499 30.8397L46.8975 31.6017C47.2312 31.3181 47.6835 31.1562 48.3003 31.1562V30.1562ZM46.2507 30.839C45.7433 31.2684 45.3753 31.8279 45.1392 32.4991L46.0825 32.831C46.2669 32.3068 46.5408 31.9035 46.8967 31.6024L46.2507 30.839ZM45.1374 32.5042C44.9196 33.1454 44.812 33.8197 44.812 34.5244H45.812C45.812 33.9231 45.9036 33.3579 46.0843 32.8258L45.1374 32.5042ZM57.7486 34.5576L57.3724 34.2282L57.1371 34.4968L57.3149 34.8065L57.7486 34.5576ZM63.7417 45V45.5H64.6052L64.1754 44.7511L63.7417 45ZM60.3716 45L59.9319 45.238L60.0737 45.5H60.3716V45ZM55.7896 36.5332L56.2293 36.2952L55.884 35.6572L55.4107 36.2069L55.7896 36.5332ZM54.7603 37.7285L54.3814 37.4023L54.2603 37.5429V37.7285H54.7603ZM54.7603 45V45.5H55.2603V45H54.7603ZM51.8716 45H51.3716V45.5H51.8716V45ZM51.8716 21.1934V20.6934H51.3716V21.1934H51.8716ZM54.7603 21.1934H55.2603V20.6934H54.7603V21.1934ZM54.7603 34.126H54.2603V35.4884L55.1416 34.4494L54.7603 34.126ZM59.9566 28V27.5H59.725L59.5753 27.6766L59.9566 28ZM63.4927 28L63.8688 28.3295L64.5954 27.5H63.4927V28ZM57.3149 34.8065L63.3081 45.2489L64.1754 44.7511L58.1822 34.3087L57.3149 34.8065ZM63.7417 44.5H60.3716V45.5H63.7417V44.5ZM60.8113 44.762L56.2293 36.2952L55.3498 36.7712L59.9319 45.238L60.8113 44.762ZM55.4107 36.2069L54.3814 37.4023L55.1392 38.0548L56.1685 36.8595L55.4107 36.2069ZM54.2603 37.7285V45H55.2603V37.7285H54.2603ZM54.7603 44.5H51.8716V45.5H54.7603V44.5ZM52.3716 45V21.1934H51.3716V45H52.3716ZM51.8716 21.6934H54.7603V20.6934H51.8716V21.6934ZM54.2603 21.1934V34.126H55.2603V21.1934H54.2603ZM55.1416 34.4494L60.3379 28.3234L59.5753 27.6766L54.379 33.8025L55.1416 34.4494ZM59.9566 28.5H63.4927V27.5H59.9566V28.5ZM63.1166 27.6705L57.3724 34.2282L58.1247 34.8871L63.8688 28.3295L63.1166 27.6705ZM76.0621 37.5127V38.0127H76.5621V37.5127H76.0621ZM67.2964 37.5127V37.0127H66.7864L66.7965 37.5226L67.2964 37.5127ZM68.1597 41.8291L67.7364 42.0952L67.7409 42.1023L67.7456 42.1093L68.1597 41.8291ZM72.775 42.6094L72.8526 43.1033L72.8583 43.1024L72.775 42.6094ZM74.7505 42.2441H75.2505V41.6292L74.6486 41.7547L74.7505 42.2441ZM74.7505 44.7012L74.8854 45.1827L75.2505 45.0804V44.7012H74.7505ZM72.6754 45.083L72.6158 44.5866L72.615 44.5867L72.6754 45.083ZM67.9273 44.9336L67.7946 45.4157L67.8011 45.4174L67.9273 44.9336ZM66.0015 43.7051L66.3816 43.3803L66.0015 43.7051ZM64.8062 41.082L64.319 41.1945L64.3203 41.2L64.8062 41.082ZM65.9683 29.7598L65.5676 29.4608L65.5664 29.4623L65.9683 29.7598ZM67.9107 28.249L68.0964 28.7133L68.1021 28.711L67.9107 28.249ZM74.7837 29.6934L74.3655 29.9674L74.3683 29.9715L74.7837 29.6934ZM68.1929 31.2207L68.6099 31.4966L68.6108 31.4953L68.1929 31.2207ZM67.3296 35.2051L66.8301 35.1847L66.8089 35.7051H67.3296V35.2051ZM73.2398 35.2051V35.7051H73.7398V35.2051H73.2398ZM72.6421 31.2705L72.2003 31.5048L72.2048 31.5128L72.6421 31.2705ZM75.5621 34.9727V37.5127H76.5621V34.9727H75.5621ZM76.0621 37.0127H67.2964V38.0127H76.0621V37.0127ZM66.7965 37.5226C66.819 38.6569 66.9089 39.5964 67.0743 40.3289L68.0498 40.1086C67.9053 39.4687 67.8182 38.6041 67.7963 37.5028L66.7965 37.5226ZM67.0743 40.3289C67.2358 41.0439 67.4511 41.6413 67.7364 42.0952L68.583 41.563C68.3814 41.2422 68.1982 40.766 68.0498 40.1086L67.0743 40.3289ZM67.7456 42.1093C68.041 42.546 68.4068 42.8782 68.8539 43.057L69.2253 42.1285C69.0084 42.0418 68.7875 41.8648 68.5739 41.5489L67.7456 42.1093ZM68.8539 43.057C69.2559 43.2178 69.7027 43.292 70.1851 43.292V42.292C69.8042 42.292 69.4874 42.2334 69.2253 42.1285L68.8539 43.057ZM70.1851 43.292C71.1576 43.292 72.0474 43.2298 72.8526 43.1033L72.6973 42.1154C71.953 42.2324 71.1162 42.292 70.1851 42.292V43.292ZM72.8583 43.1024C73.6477 42.969 74.3129 42.846 74.8525 42.7336L74.6486 41.7547C74.1256 41.8636 73.4738 41.9842 72.6916 42.1164L72.8583 43.1024ZM74.2505 42.2441V44.7012H75.2505V42.2441H74.2505ZM74.6157 44.2197C74.0953 44.3654 73.4308 44.4888 72.6158 44.5866L72.7349 45.5794C73.5801 45.478 74.299 45.3468 74.8854 45.1827L74.6157 44.2197ZM72.615 44.5867C71.8095 44.6846 71.1167 44.7324 70.5337 44.7324V45.7324C71.1683 45.7324 71.9032 45.6806 72.7357 45.5794L72.615 44.5867ZM70.5337 44.7324C69.5929 44.7324 68.7677 44.6361 68.0535 44.4498L67.8011 45.4174C68.6143 45.6295 69.5267 45.7324 70.5337 45.7324V44.7324ZM68.06 44.4515C67.3938 44.2681 66.8377 43.9139 66.3816 43.3803L65.6214 44.0299C66.2057 44.7137 66.9335 45.1785 67.7946 45.4157L68.06 44.4515ZM66.3816 43.3803C65.9306 42.8525 65.5582 42.0606 65.2921 40.9641L64.3203 41.2C64.6076 42.3834 65.032 43.3402 65.6214 44.0299L66.3816 43.3803ZM65.2934 40.9696C65.0398 39.8708 64.9078 38.3858 64.9078 36.5H63.9078C63.9078 38.4215 64.0413 39.9912 64.319 41.1945L65.2934 40.9696ZM64.9078 36.5C64.9078 33.4466 65.4263 31.3325 66.3702 30.0572L65.5664 29.4623C64.4296 30.9982 63.9078 33.3777 63.9078 36.5H64.9078ZM66.3691 30.0587C66.8366 29.432 67.4109 28.9874 68.0964 28.7133L67.725 27.7848C66.861 28.1304 66.1404 28.693 65.5676 29.4608L66.3691 30.0587ZM68.1021 28.711C68.8046 28.4199 69.6339 28.2676 70.6002 28.2676V27.2676C69.53 27.2676 68.5662 27.4362 67.7193 27.7871L68.1021 28.711ZM70.6002 28.2676C72.4308 28.2676 73.6418 28.8627 74.3655 29.9674L75.202 29.4193C74.2435 27.9563 72.6653 27.2676 70.6002 27.2676V28.2676ZM74.3683 29.9715C75.1452 31.1319 75.5621 32.7812 75.5621 34.9727H76.5621C76.5621 32.6706 76.1267 30.8004 75.1992 29.4152L74.3683 29.9715ZM70.5337 29.6748C69.9371 29.6748 69.403 29.7579 68.9488 29.9449L69.3296 30.8696C69.628 30.7467 70.0236 30.6748 70.5337 30.6748V29.6748ZM68.9488 29.9449C68.467 30.1433 68.0769 30.4868 67.7751 30.9461L68.6108 31.4953C68.8181 31.1799 69.0588 30.9811 69.3296 30.8696L68.9488 29.9449ZM67.776 30.9448C67.1965 31.8205 66.908 33.2707 66.8301 35.1847L67.8292 35.2254C67.9063 33.3322 68.1933 32.1262 68.6099 31.4966L67.776 30.9448ZM67.3296 35.7051H73.2398V34.7051H67.3296V35.7051ZM73.7398 35.2051V34.292H72.7398V35.2051H73.7398ZM73.7398 34.292C73.7398 32.9564 73.5361 31.8526 73.0795 31.0283L72.2048 31.5128C72.5451 32.1272 72.7398 33.0378 72.7398 34.292H73.7398ZM73.0839 31.0363C72.5883 30.1017 71.6861 29.6748 70.5337 29.6748V30.6748C71.4179 30.6748 71.9213 30.9784 72.2004 31.5048L73.0839 31.0363ZM85.9586 28H86.4586V27.5H85.9586V28ZM85.9586 30.5566V31.0566H86.4586V30.5566H85.9586ZM82.0074 30.5566V30.0566H81.5074V30.5566H82.0074ZM82.3727 42.1611L81.9399 42.4117L81.9449 42.42L82.3727 42.1611ZM85.0289 42.6758L84.9252 42.1867L84.9221 42.1873L85.0289 42.6758ZM85.9586 42.4434H86.4586V41.7685L85.813 41.965L85.9586 42.4434ZM85.9586 44.834L86.096 45.3147L86.4586 45.2111V44.834H85.9586ZM84.7799 45.083L84.6913 44.5909L84.7799 45.083ZM80.065 43.9707L79.665 44.2707L79.6676 44.274L80.065 43.9707ZM79.1188 30.5566H79.6188V30.0566H79.1188V30.5566ZM76.9107 30.5566H76.4107V31.0566H76.9107V30.5566ZM76.9107 28V27.5H76.4107V28H76.9107ZM79.1188 28V28.5H79.6188V28H79.1188ZM79.1188 23.916V23.416H78.6188V23.916H79.1188ZM82.0074 23.916H82.5074V23.416H82.0074V23.916ZM82.0074 28H81.5074V28.5H82.0074V28ZM85.4586 28V30.5566H86.4586V28H85.4586ZM85.9586 30.0566H82.0074V31.0566H85.9586V30.0566ZM81.5074 30.5566V40.916H82.5074V30.5566H81.5074ZM81.5074 40.916C81.5074 41.4286 81.6606 41.9292 81.9399 42.4117L82.8054 41.9106C82.5977 41.5519 82.5074 41.2224 82.5074 40.916H81.5074ZM81.9449 42.42C82.3176 43.0358 82.9613 43.292 83.7174 43.292V42.292C83.1896 42.292 82.9368 42.1276 82.8004 41.9022L81.9449 42.42ZM83.7174 43.292C84.2594 43.292 84.735 43.2519 85.1358 43.1642L84.9221 42.1873C84.6145 42.2546 84.2157 42.292 83.7174 42.292V43.292ZM85.1327 43.1649C85.5069 43.0855 85.8316 43.0047 86.1042 42.9217L85.813 41.965C85.5765 42.037 85.2814 42.1111 84.9252 42.1867L85.1327 43.1649ZM85.4586 42.4434V44.834H86.4586V42.4434H85.4586ZM85.8212 44.3532C85.6151 44.4121 85.244 44.4914 84.6913 44.5909L84.8685 45.5751C85.4225 45.4754 85.8372 45.3887 86.096 45.3147L85.8212 44.3532ZM84.6913 44.5909C84.1694 44.6849 83.6182 44.7324 83.0367 44.7324V45.7324C83.6727 45.7324 84.2836 45.6804 84.8685 45.5751L84.6913 44.5909ZM83.0367 44.7324C81.8078 44.7324 80.9853 44.3523 80.4625 43.6674L79.6676 44.274C80.4287 45.2714 81.5872 45.7324 83.0367 45.7324V44.7324ZM80.465 43.6707C79.9134 42.9352 79.6188 41.9744 79.6188 40.75H78.6188C78.6188 42.1375 78.9549 43.3239 79.665 44.2707L80.465 43.6707ZM79.6188 40.75V30.5566H78.6188V40.75H79.6188ZM79.1188 30.0566H76.9107V31.0566H79.1188V30.0566ZM77.4107 30.5566V28H76.4107V30.5566H77.4107ZM76.9107 28.5H79.1188V27.5H76.9107V28.5ZM79.6188 28V23.916H78.6188V28H79.6188ZM79.1188 24.416H82.0074V23.416H79.1188V24.416ZM81.5074 23.916V28H82.5074V23.916H81.5074ZM82.0074 28.5H85.9586V27.5H82.0074V28.5Z" fill="black"/>
<path d="M167.803 31.0098H174.353V44.6289C173.338 44.8268 172.349 44.9814 171.384 45.0928C170.419 45.2041 169.417 45.2598 168.378 45.2598C166.931 45.2598 165.7 45.068 164.686 44.6846C163.671 44.2887 162.855 43.5713 162.236 42.5322C161.618 41.4932 161.166 40.0706 160.882 38.2646C160.61 36.4463 160.474 34.1208 160.474 31.2881C160.474 28.4678 160.653 26.2041 161.012 24.4971C161.371 22.79 161.909 21.4603 162.626 20.5078C163.356 19.5553 164.271 18.9245 165.372 18.6152C166.485 18.2936 167.79 18.1328 169.287 18.1328C169.943 18.1328 170.697 18.1885 171.551 18.2998C172.404 18.4111 173.072 18.5348 173.555 18.6709V21.3984C172.738 21.25 171.91 21.1325 171.068 21.0459C170.24 20.9593 169.417 20.916 168.601 20.916C167.797 20.916 167.098 21.0335 166.504 21.2686C165.91 21.4912 165.415 21.986 165.02 22.7529C164.636 23.5075 164.345 24.5898 164.148 26C163.95 27.3978 163.851 29.2471 163.851 31.5479C163.851 33.9352 163.937 35.8525 164.11 37.2998C164.284 38.7347 164.543 39.8356 164.89 40.6025C165.248 41.3818 165.694 41.8952 166.226 42.1426C166.77 42.3776 167.426 42.4951 168.192 42.4951C168.625 42.4951 169.108 42.4704 169.64 42.4209C170.172 42.3714 170.691 42.3034 171.198 42.2168V33.793L167.803 33.793V31.0098ZM191.295 42.3467V45H190.145C189.638 45 189.112 44.8639 188.568 44.5918C188.023 44.3197 187.597 43.8372 187.287 43.1445C186.817 43.8249 186.187 44.3506 185.395 44.7217C184.616 45.0804 183.577 45.2598 182.278 45.2598C181.597 45.2598 180.911 45.1917 180.218 45.0557C179.538 44.9196 178.932 44.6413 178.4 44.2207C177.868 43.8001 177.435 43.2249 177.101 42.4951C176.779 41.7529 176.619 40.8005 176.619 39.6377C176.619 37.5843 177.212 36.0133 178.4 34.9248C179.6 33.8363 181.263 33.292 183.391 33.292H186.378V31.251C186.378 30.4346 186.143 29.7666 185.673 29.2471C185.216 28.7275 184.504 28.4678 183.539 28.4678C182.451 28.4678 181.498 28.5358 180.682 28.6719C179.878 28.7956 178.994 28.9935 178.029 29.2656V26.501C178.734 26.2907 179.525 26.1113 180.404 25.9629C181.294 25.8145 182.21 25.7402 183.15 25.7402C185.587 25.7402 187.281 26.2412 188.234 27.2432C188.729 27.7627 189.081 28.4183 189.291 29.21C189.502 29.9893 189.607 30.9232 189.607 32.0117V41.1221C189.607 41.5055 189.73 41.8086 189.978 42.0312C190.238 42.2415 190.677 42.3467 191.295 42.3467ZM183.038 42.5322C184.176 42.5322 185.018 42.2354 185.562 41.6416C186.106 41.0355 186.378 40.4479 186.378 39.8789V35.8711H183.187C182.309 35.8711 181.542 36.168 180.886 36.7617C180.243 37.3555 179.921 38.2399 179.921 39.415C179.921 40.6025 180.187 41.4189 180.719 41.8643C181.251 42.3096 182.024 42.5322 183.038 42.5322ZM196.994 31.6963V45L193.765 45V26H196.419L196.697 27.6699C197.872 26.3835 199.301 25.7402 200.983 25.7402C202.171 25.7402 203.117 25.9629 203.822 26.4082C204.539 26.8411 205.102 27.4163 205.51 28.1338C206.723 26.5381 208.318 25.7402 210.297 25.7402C212.252 25.7402 213.625 26.2783 214.417 27.3545C215.221 28.4307 215.623 30.1315 215.623 32.457V45H212.394V32.0859C212.394 30.8613 212.221 29.9521 211.875 29.3584C211.528 28.7646 210.811 28.4678 209.722 28.4678C209.091 28.4678 208.516 28.6348 207.997 28.9687C207.477 29.3027 207.063 29.7171 206.754 30.2119C206.457 30.7067 206.308 31.2015 206.308 31.6963V45H203.08V32.0859C203.08 30.8613 202.907 29.9521 202.56 29.3584C202.214 28.7646 201.496 28.4678 200.408 28.4678C199.777 28.4678 199.202 28.6348 198.682 28.9687C198.175 29.3027 197.767 29.7171 197.458 30.2119C197.148 30.7067 196.994 31.2015 196.994 31.6963ZM231.712 33.793V36.6318L221.915 36.6318C221.94 37.8812 222.039 38.8893 222.212 39.6562C222.385 40.4232 222.608 41.0231 222.88 41.4561C223.164 41.8766 223.492 42.1611 223.863 42.3096C224.234 42.458 224.661 42.5322 225.143 42.5322C226.207 42.5322 227.172 42.4642 228.038 42.3281C228.916 42.1797 229.652 42.0436 230.246 41.9199V44.666C229.628 44.8392 228.854 44.9814 227.927 45.0928C227.011 45.2041 226.213 45.2598 225.533 45.2598C224.445 45.2598 223.474 45.1484 222.62 44.9258C221.767 44.6908 221.049 44.2331 220.468 43.5527C219.886 42.8724 219.441 41.8952 219.132 40.6211C218.835 39.3346 218.686 37.6276 218.686 35.5C218.686 32.0488 219.268 29.5378 220.431 27.9668C221.012 27.1875 221.736 26.6247 222.601 26.2783C223.467 25.9196 224.469 25.7402 225.607 25.7402C227.784 25.7402 229.343 26.4577 230.283 27.8926C231.236 29.3151 231.712 31.2819 231.712 33.793ZM225.533 28.4307C224.915 28.4307 224.395 28.5173 223.975 28.6904C223.554 28.8636 223.201 29.1667 222.917 29.5996C222.36 30.4408 222.039 31.9251 221.952 34.0527L228.558 34.0527V33.0322C228.558 31.585 228.335 30.4593 227.89 29.6553C227.457 28.8389 226.671 28.4307 225.533 28.4307Z" fill="white"/>
<path d="M167.803 31.0098V30.5098H167.303V31.0098H167.803ZM174.353 31.0098H174.853V30.5098L174.353 30.5098V31.0098ZM174.353 44.6289L174.448 45.1197L174.853 45.0408V44.6289H174.353ZM164.686 44.6846L164.504 45.1504L164.509 45.1523L164.686 44.6846ZM160.882 38.2646L160.387 38.3387L160.388 38.3425L160.882 38.2646ZM162.626 20.5078L162.229 20.2037L162.227 20.207L162.626 20.5078ZM165.372 18.6152L165.507 19.0966L165.511 19.0956L165.372 18.6152ZM173.555 18.6709H174.055V18.2924L173.69 18.1897L173.555 18.6709ZM173.555 21.3984L173.465 21.8904L174.055 21.9975V21.3984H173.555ZM171.068 21.0459L171.016 21.5432L171.017 21.5433L171.068 21.0459ZM166.504 21.2686L166.68 21.7368L166.688 21.7335L166.504 21.2686ZM165.02 22.7529L164.575 22.5236L164.574 22.5264L165.02 22.7529ZM164.148 26L164.643 26.0701L164.643 26.0695L164.148 26ZM164.11 37.2998L163.614 37.3592L163.614 37.3597L164.11 37.2998ZM164.89 40.6025L164.434 40.8083L164.436 40.8116L164.89 40.6025ZM166.226 42.1426L166.015 42.5961L166.027 42.6016L166.226 42.1426ZM171.198 42.2168L171.282 42.7097L171.698 42.6387V42.2168H171.198ZM171.198 33.793H171.698V33.293H171.198V33.793ZM167.803 33.793H167.303V34.293H167.803V33.793ZM167.803 31.5098H174.353V30.5098H167.803V31.5098ZM173.853 31.0098V44.6289H174.853V31.0098H173.853ZM174.257 44.1382C173.254 44.3338 172.278 44.4863 171.327 44.5961L171.441 45.5895C172.42 45.4766 173.422 45.3199 174.448 45.1197L174.257 44.1382ZM171.327 44.5961C170.382 44.7051 169.399 44.7598 168.378 44.7598V45.7598C169.435 45.7598 170.456 45.7031 171.441 45.5895L171.327 44.5961ZM168.378 44.7598C166.972 44.7598 165.805 44.5732 164.862 44.2169L164.509 45.1523C165.595 45.5629 166.889 45.7598 168.378 45.7598V44.7598ZM164.867 44.2188C163.968 43.8679 163.234 43.2311 162.666 42.2765L161.807 42.788C162.476 43.9115 163.374 44.7096 164.504 45.1504L164.867 44.2188ZM162.666 42.2765C162.092 41.3127 161.655 39.959 161.376 38.1868L160.388 38.3425C160.678 40.1823 161.143 41.6737 161.807 42.788L162.666 42.2765ZM161.376 38.1906C161.109 36.4061 160.974 34.1077 160.974 31.2881H159.974C159.974 34.1338 160.11 36.4864 160.387 38.3387L161.376 38.1906ZM160.974 31.2881C160.974 28.484 161.152 26.2589 161.501 24.5999L160.522 24.3942C160.154 26.1493 159.974 28.4516 159.974 31.2881H160.974ZM161.501 24.5999C161.851 22.9341 162.368 21.6818 163.025 20.8086L162.227 20.207C161.45 21.2387 160.89 22.646 160.522 24.3942L161.501 24.5999ZM163.023 20.8119C163.69 19.9407 164.516 19.3751 165.507 19.0966L165.237 18.1339C164.027 18.4739 163.021 19.1699 162.229 20.2037L163.023 20.8119ZM165.511 19.0956C166.568 18.7902 167.824 18.6328 169.287 18.6328V17.6328C167.756 17.6328 166.403 17.7971 165.233 18.1349L165.511 19.0956ZM169.287 18.6328C169.916 18.6328 170.648 18.6863 171.486 18.7956L171.616 17.804C170.747 17.6907 169.97 17.6328 169.287 17.6328V18.6328ZM171.486 18.7956C172.33 18.9057 172.971 19.0257 173.419 19.1521L173.69 18.1897C173.174 18.044 172.479 17.9166 171.616 17.804L171.486 18.7956ZM173.055 18.6709V21.3984H174.055V18.6709H173.055ZM173.644 20.9065C172.815 20.7557 171.973 20.6364 171.12 20.5485L171.017 21.5433C171.846 21.6286 172.662 21.7443 173.465 21.8904L173.644 20.9065ZM171.12 20.5486C170.275 20.4603 169.435 20.416 168.601 20.416V21.416C169.399 21.416 170.205 21.4584 171.016 21.5432L171.12 20.5486ZM168.601 20.416C167.749 20.416 166.985 20.5403 166.32 20.8037L166.688 21.7335C167.21 21.5268 167.844 21.416 168.601 21.416V20.416ZM166.328 20.8004C165.582 21.0802 165.007 21.6867 164.575 22.5236L165.464 22.9823C165.824 22.2853 166.238 21.9022 166.68 21.7367L166.328 20.8004ZM164.574 22.5264C164.154 23.3525 163.853 24.4976 163.652 25.9305L164.643 26.0695C164.837 24.682 165.118 23.6624 165.465 22.9795L164.574 22.5264ZM163.652 25.9299C163.45 27.3607 163.351 29.2362 163.351 31.5479H164.351C164.351 29.2579 164.449 27.4348 164.643 26.0701L163.652 25.9299ZM163.351 31.5479C163.351 33.9443 163.437 35.8838 163.614 37.3592L164.607 37.2404C164.437 35.8213 164.351 33.9262 164.351 31.5479H163.351ZM163.614 37.3597C163.79 38.8144 164.057 39.9736 164.434 40.8083L165.345 40.3967C165.03 39.6977 164.778 38.655 164.607 37.2399L163.614 37.3597ZM164.436 40.8116C164.821 41.6501 165.335 42.2799 166.015 42.5959L166.437 41.6892C166.052 41.5105 165.675 41.1136 165.344 40.3935L164.436 40.8116ZM166.027 42.6016C166.65 42.8703 167.377 42.9951 168.192 42.9951V41.9951C167.475 41.9951 166.89 41.8849 166.424 41.6835L166.027 42.6016ZM168.192 42.9951C168.644 42.9951 169.142 42.9693 169.686 42.9187L169.593 41.923C169.074 41.9714 168.607 41.9951 168.192 41.9951V42.9951ZM169.686 42.9187C170.23 42.8681 170.762 42.7985 171.282 42.7097L171.114 41.7239C170.62 41.8083 170.113 41.8747 169.593 41.923L169.686 42.9187ZM171.698 42.2168V33.793H170.698V42.2168H171.698ZM171.198 33.293L167.803 33.293V34.293L171.198 34.293V33.293ZM168.303 33.793V31.0098H167.303V33.793H168.303ZM191.295 42.3467H191.795V41.8467H191.295V42.3467ZM191.295 45V45.5H191.795V45H191.295ZM187.287 43.1445L187.744 42.9407L187.382 42.1287L186.876 42.8603L187.287 43.1445ZM185.395 44.7217L185.604 45.1759L185.607 45.1744L185.395 44.7217ZM180.218 45.0557L180.12 45.546L180.122 45.5463L180.218 45.0557ZM177.101 42.4951L176.642 42.694L176.646 42.7032L177.101 42.4951ZM178.4 34.9248L178.064 34.5545L178.062 34.5562L178.4 34.9248ZM186.378 33.292V33.792H186.878V33.292H186.378ZM185.673 29.2471L185.298 29.5776L185.302 29.5825L185.673 29.2471ZM180.682 28.6719L180.758 29.1661L180.764 29.1651L180.682 28.6719ZM178.029 29.2656H177.529V29.9262L178.164 29.7468L178.029 29.2656ZM178.029 26.501L177.886 26.0218L177.529 26.1283V26.501H178.029ZM180.404 25.9629L180.321 25.4697L180.32 25.4699L180.404 25.9629ZM188.234 27.2432L187.871 27.5877L187.872 27.588L188.234 27.2432ZM189.291 29.21L188.808 29.3383L188.809 29.3402L189.291 29.21ZM189.978 42.0312L189.643 42.4029L189.653 42.4116L189.663 42.4199L189.978 42.0312ZM185.562 41.6416L185.93 41.9795L185.934 41.9757L185.562 41.6416ZM186.378 35.8711H186.878V35.3711H186.378V35.8711ZM180.886 36.7617L180.55 36.3911L180.547 36.3943L180.886 36.7617ZM190.795 42.3467V45H191.795V42.3467H190.795ZM191.295 44.5H190.145V45.5H191.295V44.5ZM190.145 44.5C189.729 44.5 189.28 44.3889 188.791 44.1446L188.344 45.039C188.944 45.339 189.546 45.5 190.145 45.5V44.5ZM188.791 44.1446C188.374 43.9359 188.018 43.5546 187.744 42.9407L186.831 43.3484C187.175 44.1199 187.673 44.7034 188.344 45.039L188.791 44.1446ZM186.876 42.8603C186.459 43.4636 185.899 43.9332 185.183 44.269L185.607 45.1744C186.474 44.768 187.176 44.1861 187.699 43.4287L186.876 42.8603ZM185.186 44.2675C184.497 44.5846 183.538 44.7598 182.278 44.7598V45.7598C183.615 45.7598 184.734 45.5762 185.604 45.1759L185.186 44.2675ZM182.278 44.7598C181.631 44.7598 180.977 44.6951 180.314 44.565L180.122 45.5463C180.845 45.6884 181.564 45.7598 182.278 45.7598V44.7598ZM180.316 44.5654C179.711 44.4444 179.178 44.1989 178.71 43.8285L178.09 44.6129C178.685 45.0836 179.364 45.3948 180.12 45.546L180.316 44.5654ZM178.71 43.8285C178.25 43.4653 177.863 42.9581 177.556 42.2871L176.646 42.7032C177.007 43.4918 177.485 44.135 178.09 44.6129L178.71 43.8285ZM177.56 42.2963C177.274 41.638 177.119 40.7597 177.119 39.6377H176.119C176.119 40.8413 176.284 41.8678 176.642 42.6939L177.56 42.2963ZM177.119 39.6377C177.119 37.6835 177.68 36.2627 178.738 35.2934L178.062 34.5562C176.744 35.764 176.119 37.4851 176.119 39.6377H177.119ZM178.736 35.2951C179.818 34.3134 181.348 33.792 183.391 33.792V32.792C181.179 32.792 179.381 33.3591 178.064 34.5545L178.736 35.2951ZM183.391 33.792H186.378V32.792H183.391V33.792ZM186.878 33.292V31.251H185.878V33.292H186.878ZM186.878 31.251C186.878 30.3324 186.611 29.5381 186.044 28.9116L185.302 29.5825C185.676 29.9952 185.878 30.5367 185.878 31.251H186.878ZM186.048 28.9166C185.463 28.252 184.589 27.9678 183.539 27.9678V28.9678C184.419 28.9678 184.968 29.2031 185.298 29.5776L186.048 28.9166ZM183.539 27.9678C182.431 27.9678 181.45 28.0369 180.6 28.1787L180.764 29.1651C181.547 29.0347 182.47 28.9678 183.539 28.9678V27.9678ZM180.606 28.1777C179.778 28.3051 178.873 28.5079 177.893 28.7844L178.164 29.7468C179.114 29.479 179.978 29.286 180.758 29.1661L180.606 28.1777ZM178.529 29.2656V26.501H177.529V29.2656H178.529ZM178.172 26.9801C178.854 26.7767 179.625 26.6016 180.487 26.4559L180.32 25.4699C179.426 25.621 178.614 25.8047 177.886 26.0218L178.172 26.9801ZM180.486 26.4561C181.348 26.3124 182.236 26.2402 183.15 26.2402V25.2402C182.183 25.2402 181.24 25.3165 180.321 25.4697L180.486 26.4561ZM183.15 26.2402C185.547 26.2402 187.064 26.7383 187.871 27.5877L188.596 26.8987C187.499 25.7441 185.627 25.2402 183.15 25.2402V26.2402ZM187.872 27.588C188.301 28.0385 188.616 28.6162 188.808 29.3383L189.775 29.0816C189.546 28.2204 189.156 27.4869 188.596 26.8983L187.872 27.588ZM188.809 29.3402C189.004 30.0652 189.107 30.953 189.107 32.0117H190.107C190.107 30.8934 189.999 29.9133 189.774 29.0797L188.809 29.3402ZM189.107 32.0117V41.1221H190.107V32.0117H189.107ZM189.107 41.1221C189.107 41.6235 189.274 42.0706 189.643 42.4029L190.312 41.6596C190.187 41.5466 190.107 41.3876 190.107 41.1221H189.107ZM189.663 42.4199C190.061 42.742 190.648 42.8467 191.295 42.8467V41.8467C190.706 41.8467 190.414 41.7411 190.292 41.6426L189.663 42.4199ZM183.038 43.0322C184.257 43.0322 185.258 42.7134 185.93 41.9795L185.193 41.3037C184.778 41.7573 184.096 42.0322 183.038 42.0322V43.0322ZM185.934 41.9757C186.525 41.317 186.878 40.6154 186.878 39.8789H185.878C185.878 40.2804 185.687 40.7539 185.19 41.3075L185.934 41.9757ZM186.878 39.8789V35.8711H185.878V39.8789H186.878ZM186.378 35.3711H183.187V36.3711H186.378V35.3711ZM183.187 35.3711C182.184 35.3711 181.297 35.7147 180.55 36.3911L181.222 37.1323C181.786 36.6212 182.434 36.3711 183.187 36.3711V35.3711ZM180.547 36.3943C179.77 37.1119 179.421 38.1502 179.421 39.415H180.421C180.421 38.3296 180.716 37.599 181.225 37.1291L180.547 36.3943ZM179.421 39.415C179.421 40.6493 179.693 41.6574 180.398 42.2476L181.04 41.4809C180.681 41.1805 180.421 40.5558 180.421 39.415H179.421ZM180.398 42.2476C181.054 42.7964 181.96 43.0322 183.038 43.0322V42.0322C182.089 42.0322 181.448 41.8228 181.04 41.4809L180.398 42.2476ZM196.994 45V45.5H197.494V45H196.994ZM193.765 45H193.265V45.5H193.765V45ZM193.765 26V25.5H193.265V26H193.765ZM196.419 26L196.912 25.9178L196.842 25.5H196.419V26ZM196.697 27.6699L196.204 27.7521L196.373 28.7662L197.066 28.0071L196.697 27.6699ZM203.822 26.4082L203.555 26.831L203.564 26.8363L203.822 26.4082ZM205.51 28.1338L205.076 28.3811L205.45 29.0394L205.909 28.4363L205.51 28.1338ZM214.417 27.3545L214.014 27.6508L214.016 27.6538L214.417 27.3545ZM215.623 45V45.5H216.123V45H215.623ZM212.394 45H211.894V45.5H212.394V45ZM206.754 30.2119L206.329 29.9469L206.325 29.9547L206.754 30.2119ZM206.308 45V45.5H206.808V45H206.308ZM203.08 45H202.58V45.5H203.08V45ZM198.682 28.9687L198.412 28.5481L198.407 28.5512L198.682 28.9687ZM196.494 31.6963V45H197.494V31.6963H196.494ZM196.994 44.5L193.765 44.5V45.5L196.994 45.5V44.5ZM194.265 45V26H193.265V45L194.265 45ZM193.765 26.5H196.419V25.5H193.765V26.5ZM195.925 26.0822L196.204 27.7521L197.19 27.5877L196.912 25.9178L195.925 26.0822ZM197.066 28.0071C198.15 26.8202 199.447 26.2402 200.983 26.2402V25.2402C199.155 25.2402 197.594 25.9467 196.328 27.3327L197.066 28.0071ZM200.983 26.2402C202.114 26.2402 202.957 26.4532 203.555 26.8309L204.089 25.9855C203.277 25.4726 202.227 25.2402 200.983 25.2402V26.2402ZM203.564 26.8363C204.209 27.2257 204.711 27.7391 205.076 28.3811L205.945 27.8865C205.494 27.0935 204.87 26.4566 204.08 25.9801L203.564 26.8363ZM205.909 28.4363C207.028 26.9632 208.477 26.2402 210.297 26.2402V25.2402C208.16 25.2402 206.418 26.113 205.112 27.8313L205.909 28.4363ZM210.297 26.2402C212.17 26.2402 213.354 26.7543 214.014 27.6508L214.819 27.0582C213.896 25.8023 212.334 25.2402 210.297 25.2402V26.2402ZM214.016 27.6538C214.723 28.6003 215.123 30.1688 215.123 32.457H216.123C216.123 30.0942 215.718 28.261 214.817 27.0552L214.016 27.6538ZM215.123 32.457V45H216.123V32.457H215.123ZM215.623 44.5H212.394V45.5H215.623V44.5ZM212.894 45V32.0859H211.894V45H212.894ZM212.894 32.0859C212.894 30.8324 212.72 29.8155 212.307 29.1065L211.443 29.6103C211.722 30.0888 211.894 30.8902 211.894 32.0859H212.894ZM212.307 29.1065C211.826 28.2833 210.879 27.9678 209.722 27.9678V28.9678C210.743 28.9678 211.23 29.246 211.443 29.6103L212.307 29.1065ZM209.722 27.9678C208.998 27.9678 208.328 28.1612 207.726 28.5482L208.267 29.3893C208.704 29.1084 209.185 28.9678 209.722 28.9678V27.9678ZM207.726 28.5482C207.148 28.9197 206.68 29.3859 206.33 29.9469L207.178 30.4769C207.445 30.0483 207.806 29.6858 208.267 29.3893L207.726 28.5482ZM206.325 29.9547C205.989 30.5141 205.808 31.0967 205.808 31.6963H206.808C206.808 31.3063 206.924 30.8993 207.182 30.4692L206.325 29.9547ZM205.808 31.6963V45H206.808V31.6963H205.808ZM206.308 44.5H203.08V45.5H206.308V44.5ZM203.58 45V32.0859H202.58V45H203.58ZM203.58 32.0859C203.58 30.8324 203.406 29.8155 202.992 29.1065L202.128 29.6103C202.407 30.0888 202.58 30.8902 202.58 32.0859H203.58ZM202.992 29.1065C202.512 28.2833 201.564 27.9678 200.408 27.9678V28.9678C201.429 28.9678 201.916 29.246 202.128 29.6103L202.992 29.1065ZM200.408 27.9678C199.683 27.9678 199.014 28.1612 198.412 28.5482L198.953 29.3893C199.39 29.1084 199.871 28.9678 200.408 28.9678V27.9678ZM198.407 28.5512C197.843 28.9231 197.383 29.3886 197.034 29.9469L197.882 30.4769C198.151 30.0456 198.508 29.6824 198.957 29.3863L198.407 28.5512ZM197.034 29.9469C196.684 30.5067 196.494 31.0921 196.494 31.6963H197.494C197.494 31.3109 197.613 30.9067 197.882 30.4769L197.034 29.9469ZM231.712 36.6318V37.1318H232.212V36.6318H231.712ZM221.915 36.6318V36.1318H221.405L221.415 36.6417L221.915 36.6318ZM222.88 41.4561L222.456 41.7221L222.461 41.7293L222.466 41.7362L222.88 41.4561ZM228.038 42.3281L228.116 42.8221L228.121 42.8211L228.038 42.3281ZM230.246 41.9199H230.746V41.305L230.144 41.4304L230.246 41.9199ZM230.246 44.666L230.381 45.1475L230.746 45.0452V44.666H230.246ZM227.927 45.0928L227.867 44.5963L227.866 44.5964L227.927 45.0928ZM222.62 44.9258L222.487 45.4079L222.494 45.4096L222.62 44.9258ZM219.132 40.6211L218.645 40.7335L218.646 40.739L219.132 40.6211ZM220.431 27.9668L220.03 27.6678L220.029 27.6693L220.431 27.9668ZM222.601 26.2783L222.787 26.7426L222.793 26.7402L222.601 26.2783ZM230.283 27.8926L229.865 28.1666L229.868 28.1708L230.283 27.8926ZM223.975 28.6904L223.784 28.2281L223.975 28.6904ZM222.917 29.5996L223.334 29.8755L223.335 29.8742L222.917 29.5996ZM221.952 34.0527L221.452 34.0324L221.431 34.5527H221.952V34.0527ZM228.558 34.0527V34.5527H229.058V34.0527H228.558ZM227.89 29.6553L227.448 29.8896L227.452 29.8975L227.89 29.6553ZM231.212 33.793V36.6318H232.212V33.793H231.212ZM231.712 36.1318L221.915 36.1318V37.1318L231.712 37.1318V36.1318ZM221.415 36.6417C221.44 37.9076 221.54 38.9532 221.724 39.7664L222.7 39.5461C222.537 38.8255 222.439 37.8548 222.415 36.6219L221.415 36.6417ZM221.724 39.7664C221.904 40.5621 222.143 41.2227 222.456 41.7221L223.303 41.19C223.073 40.8235 222.866 40.2842 222.7 39.5461L221.724 39.7664ZM222.466 41.7362C222.791 42.2173 223.191 42.5793 223.678 42.7738L224.049 41.8453C223.793 41.7429 223.538 41.536 223.294 41.1759L222.466 41.7362ZM223.678 42.7738C224.119 42.9502 224.61 43.0322 225.143 43.0322V42.0322C224.712 42.0322 224.35 41.9658 224.049 41.8453L223.678 42.7738ZM225.143 43.0322C226.228 43.0322 227.219 42.9629 228.116 42.8221L227.96 41.8342C227.125 41.9655 226.187 42.0322 225.143 42.0322V43.0322ZM228.121 42.8211C229.003 42.6721 229.746 42.5348 230.348 42.4094L230.144 41.4304C229.559 41.5524 228.829 41.6873 227.955 41.8351L228.121 42.8211ZM229.746 41.9199V44.666L230.746 44.666V41.9199L229.746 41.9199ZM230.111 44.1845C229.526 44.3485 228.78 44.4868 227.867 44.5963L227.986 45.5892C228.929 45.4761 229.729 45.3299 230.381 45.1475L230.111 44.1845ZM227.866 44.5964C226.964 44.7061 226.188 44.7598 225.533 44.7598V45.7598C226.239 45.7598 227.058 45.7021 227.987 45.5891L227.866 44.5964ZM225.533 44.7598C224.478 44.7598 223.55 44.6517 222.746 44.442L222.494 45.4096C223.397 45.6452 224.411 45.7598 225.533 45.7598V44.7598ZM222.753 44.4437C221.997 44.2355 221.365 43.8332 220.848 43.2279L220.088 43.8776C220.733 44.633 221.536 45.146 222.487 45.4078L222.753 44.4437ZM220.848 43.2279C220.336 42.6285 219.916 41.7338 219.618 40.5032L218.646 40.739C218.966 42.0566 219.437 43.1163 220.088 43.8776L220.848 43.2279ZM219.619 40.5087C219.334 39.2745 219.186 37.6097 219.186 35.5H218.186C218.186 37.6455 218.336 39.3948 218.645 40.7335L219.619 40.5087ZM219.186 35.5C219.186 32.0833 219.766 29.7049 220.832 28.2643L220.029 27.6693C218.769 29.3706 218.186 32.0144 218.186 35.5H219.186ZM220.831 28.2658C221.36 27.557 222.011 27.0532 222.787 26.7426L222.416 25.8141C221.461 26.1961 220.664 26.818 220.03 27.6678L220.831 28.2658ZM222.793 26.7402C223.587 26.4114 224.521 26.2402 225.607 26.2402V25.2402C224.417 25.2402 223.348 25.4278 222.41 25.8164L222.793 26.7402ZM225.607 26.2402C227.667 26.2402 229.042 26.9109 229.865 28.1666L230.701 27.6186C229.644 26.0045 227.902 25.2402 225.607 25.2402V26.2402ZM229.868 28.1708C230.745 29.4809 231.212 31.3372 231.212 33.793H232.212C232.212 31.2266 231.726 29.1493 230.699 27.6144L229.868 28.1708ZM225.533 27.9307C224.871 27.9307 224.283 28.0228 223.784 28.2281L224.165 29.1528C224.508 29.0117 224.958 28.9307 225.533 28.9307V27.9307ZM223.784 28.2281C223.258 28.4447 222.831 28.8201 222.499 29.325L223.335 29.8742C223.572 29.5132 223.85 29.2825 224.165 29.1528L223.784 28.2281ZM222.5 29.3237C221.862 30.2879 221.539 31.8944 221.452 34.0324L222.452 34.0731C222.538 31.9559 222.859 30.5936 223.334 29.8755L222.5 29.3237ZM221.952 34.5527L228.558 34.5527V33.5527L221.952 33.5527V34.5527ZM229.058 34.0527V33.0322H228.058V34.0527H229.058ZM229.058 33.0322C229.058 31.5443 228.83 30.322 228.327 29.413L227.452 29.8975C227.839 30.5966 228.058 31.6256 228.058 33.0322H229.058ZM228.331 29.421C227.79 28.4005 226.805 27.9307 225.533 27.9307V28.9307C226.537 28.9307 227.123 29.2772 227.448 29.8895L228.331 29.421Z" fill="black"/>
<path d="M146.035 32.5509L141.009 37.194C140.529 37.6377 139.75 37.297 139.75 36.6431V27.3569C139.75 26.703 140.529 26.3623 141.009 26.806L146.035 31.4491C146.357 31.746 146.357 32.254 146.035 32.5509Z" fill="#FF0000" stroke="black" stroke-width="0.5"/>
<defs>
<filter id="filter0_d_12_73" x="0" y="10" width="243" height="51" filterUnits="userSpaceOnUse" color-interpolation-filters="sRGB">
<feFlood flood-opacity="0" result="BackgroundImageFix"/>
<feColorMatrix in="SourceAlpha" type="matrix" values="0 0 0 0 0 0 0 0 0 0 0 0 0 0 0 0 0 0 127 0" result="hardAlpha"/>
<feOffset dx="1" dy="1"/>
<feGaussianBlur stdDeviation="1.5"/>
<feComposite in2="hardAlpha" operator="out"/>
<feColorMatrix type="matrix" values="0 0 0 0 0 0 0 0 0 0 0 0 0 0 0 0 0 0 0.5 0"/>
<feBlend mode="normal" in2="BackgroundImageFix" result="effect1_dropShadow_12_73"/>
<feBlend mode="normal" in="SourceGraphic" in2="effect1_dropShadow_12_73" result="shape"/>
</filter>
<filter id="filter1_d_12_73" x="88" y="0" width="66" height="66" filterUnits="userSpaceOnUse" color-interpolation-filters="sRGB">
<feFlood flood-opacity="0" result="BackgroundImageFix"/>
<feColorMatrix in="SourceAlpha" type="matrix" values="0 0 0 0 0 0 0 0 0 0 0 0 0 0 0 0 0 0 127 0" result="hardAlpha"/>
<feOffset dx="1" dy="1"/>
<feGaussianBlur stdDeviation="1.5"/>
<feComposite in2="hardAlpha" operator="out"/>
<feColorMatrix type="matrix" values="0 0 0 0 0 0 0 0 0 0 0 0 0 0 0 0 0 0 0.5 0"/>
<feBlend mode="normal" in2="BackgroundImageFix" result="effect1_dropShadow_12_73"/>
<feBlend mode="normal" in="SourceGraphic" in2="effect1_dropShadow_12_73" result="shape"/>
</filter>
<linearGradient id="paint0_linear_12_73" x1="127.5" y1="14.408" x2="127.882" y2="56.9577" gradientUnits="userSpaceOnUse">
<stop offset="0.0304227" stop-color="white"/>
<stop offset="0.954571" stop-color="#FFF4F4" stop-opacity="0"/>
</linearGradient>
<linearGradient id="paint1_linear_12_73" x1="2" y1="35" x2="239" y2="35" gradientUnits="userSpaceOnUse">
<stop/>
<stop offset="0.491113" stop-color="#00C2FF"/>
<stop offset="1"/>
</linearGradient>
<linearGradient id="paint2_linear_12_73" x1="90" y1="2" x2="150" y2="62" gradientUnits="userSpaceOnUse">
<stop stop-color="#74CDFF"/>
<stop offset="0.468681" stop-color="#38B7FF"/>
<stop offset="1" stop-color="#00263A"/>
</linearGradient>
</defs>
</svg>
