<svg width="75" height="71" viewBox="0 0 75 71" fill="none" xmlns="http://www.w3.org/2000/svg">
<g filter="url(#filter0_d_12_75)">
<rect x="2" y="6" width="69" height="57" rx="4" fill="black"/>
<rect x="2" y="6" width="69" height="57" rx="4" fill="url(#paint0_linear_12_75)" fill-opacity="0.27"/>
</g>
<path fill-rule="evenodd" clip-rule="evenodd" d="M5.53333 6C3.58193 6 2 7.58193 2 9.53333H71C71 7.58193 69.4181 6 67.4667 6H5.53333ZM71 59.4667H2C2 61.4181 3.58193 63 5.53333 63H67.4667C69.4181 63 71 61.4181 71 59.4667Z" fill="#00519C"/>
<path fill-rule="evenodd" clip-rule="evenodd" d="M5.53333 6C3.58193 6 2 7.58193 2 9.53333H71C71 7.58193 69.4181 6 67.4667 6H5.53333ZM71 59.4667H2C2 61.4181 3.58193 63 5.53333 63H67.4667C69.4181 63 71 61.4181 71 59.4667Z" fill="url(#paint1_linear_12_75)" fill-opacity="0.5"/>
<g filter="url(#filter1_d_12_75)">
<mask id="path-3-inside-1_12_75" fill="white">
<path fill-rule="evenodd" clip-rule="evenodd" d="M24.9609 4.05228C25.8704 2.80815 27.3408 2 29 2H42.4C45.1614 2 47.4 4.23858 47.4 7V22.41H64C66.7614 22.41 69 24.6486 69 27.41V40.81C69 43.5714 66.7614 45.81 64 45.81H47.4V62C47.4 64.7614 45.1614 67 42.4 67H29C26.2386 67 24 64.7614 24 62V45.81H8.99998C6.23856 45.81 3.99998 43.5714 3.99998 40.81V27.41C3.99998 25.6813 4.87727 24.1575 6.21091 23.2596L24.9609 4.05228Z"/>
</mask>
<path fill-rule="evenodd" clip-rule="evenodd" d="M24.9609 4.05228C25.8704 2.80815 27.3408 2 29 2H42.4C45.1614 2 47.4 4.23858 47.4 7V22.41H64C66.7614 22.41 69 24.6486 69 27.41V40.81C69 43.5714 66.7614 45.81 64 45.81H47.4V62C47.4 64.7614 45.1614 67 42.4 67H29C26.2386 67 24 64.7614 24 62V45.81H8.99998C6.23856 45.81 3.99998 43.5714 3.99998 40.81V27.41C3.99998 25.6813 4.87727 24.1575 6.21091 23.2596L24.9609 4.05228Z" fill="white"/>
<path fill-rule="evenodd" clip-rule="evenodd" d="M24.9609 4.05228C25.8704 2.80815 27.3408 2 29 2H42.4C45.1614 2 47.4 4.23858 47.4 7V22.41H64C66.7614 22.41 69 24.6486 69 27.41V40.81C69 43.5714 66.7614 45.81 64 45.81H47.4V62C47.4 64.7614 45.1614 67 42.4 67H29C26.2386 67 24 64.7614 24 62V45.81H8.99998C6.23856 45.81 3.99998 43.5714 3.99998 40.81V27.41C3.99998 25.6813 4.87727 24.1575 6.21091 23.2596L24.9609 4.05228Z" fill="url(#paint2_linear_12_75)"/>
<path d="M24.9609 4.05228L25.3187 4.40155L25.3435 4.37609L25.3645 4.34736L24.9609 4.05228ZM47.4 22.41H46.9V22.91H47.4V22.41ZM47.4 45.81V45.31H46.9V45.81H47.4ZM24 45.81H24.5V45.31H24V45.81ZM6.21091 23.2596L6.49017 23.6743L6.5328 23.6456L6.5687 23.6088L6.21091 23.2596ZM29 1.5C27.1745 1.5 25.5568 2.38982 24.5572 3.7572L25.3645 4.34736C26.1839 3.22647 27.5071 2.5 29 2.5V1.5ZM42.4 1.5H29V2.5H42.4V1.5ZM47.9 7C47.9 3.96243 45.4375 1.5 42.4 1.5V2.5C44.8853 2.5 46.9 4.51472 46.9 7H47.9ZM47.9 22.41V7H46.9V22.41H47.9ZM64 21.91H47.4V22.91H64V21.91ZM69.5 27.41C69.5 24.3724 67.0376 21.91 64 21.91V22.91C66.4853 22.91 68.5 24.9247 68.5 27.41H69.5ZM69.5 40.81V27.41H68.5V40.81H69.5ZM64 46.31C67.0376 46.31 69.5 43.8476 69.5 40.81H68.5C68.5 43.2953 66.4853 45.31 64 45.31V46.31ZM47.4 46.31H64V45.31H47.4V46.31ZM47.9 62V45.81H46.9V62H47.9ZM42.4 67.5C45.4375 67.5 47.9 65.0376 47.9 62H46.9C46.9 64.4853 44.8853 66.5 42.4 66.5V67.5ZM29 67.5H42.4V66.5H29V67.5ZM23.5 62C23.5 65.0376 25.9624 67.5 29 67.5V66.5C26.5147 66.5 24.5 64.4853 24.5 62H23.5ZM23.5 45.81V62H24.5V45.81H23.5ZM8.99998 46.31H24V45.31H8.99998V46.31ZM3.49998 40.81C3.49998 43.8476 5.96242 46.31 8.99998 46.31V45.31C6.5147 45.31 4.49998 43.2953 4.49998 40.81H3.49998ZM3.49998 27.41V40.81H4.49998V27.41H3.49998ZM5.93165 22.8448C4.4659 23.8317 3.49998 25.508 3.49998 27.41H4.49998C4.49998 25.8547 5.28863 24.4833 6.49017 23.6743L5.93165 22.8448ZM6.5687 23.6088L25.3187 4.40155L24.6031 3.70301L5.85312 22.9103L6.5687 23.6088Z" fill="black" mask="url(#path-3-inside-1_12_75)"/>
</g>
<path d="M36.5509 6.96481L41.194 11.9911C41.6377 12.4714 41.297 13.25 40.6431 13.25H31.3569C30.703 13.25 30.3623 12.4714 30.806 11.9911L35.4491 6.96481C35.746 6.64337 36.254 6.64337 36.5509 6.96481Z" fill="#2400FF" stroke="black" stroke-width="0.5"/>
<path d="M8.96481 33.4491L13.9911 28.806C14.4714 28.3623 15.25 28.703 15.25 29.3569L15.25 38.6431C15.25 39.297 14.4714 39.6377 13.9911 39.194L8.96481 34.5509C8.64337 34.254 8.64337 33.746 8.96481 33.4491Z" fill="#14FF00" stroke="black" stroke-width="0.5"/>
<path d="M35.4491 62.0352L30.806 57.0089C30.3623 56.5286 30.703 55.75 31.3569 55.75L40.6431 55.75C41.297 55.75 41.6377 56.5286 41.194 57.0089L36.5509 62.0352C36.254 62.3566 35.746 62.3566 35.4491 62.0352Z" fill="#F2FF62" stroke="black" stroke-width="0.5"/>
<path d="M64.0352 34.5509L59.0089 39.194C58.5286 39.6377 57.75 39.297 57.75 38.6431V29.3569C57.75 28.703 58.5286 28.3623 59.0089 28.806L64.0352 33.4491C64.3566 33.746 64.3566 34.254 64.0352 34.5509Z" fill="#FF0000" stroke="black" stroke-width="0.5"/>
<defs>
<filter id="filter0_d_12_75" x="0" y="4" width="75" height="63" filterUnits="userSpaceOnUse" color-interpolation-filters="sRGB">
<feFlood flood-opacity="0" result="BackgroundImageFix"/>
<feColorMatrix in="SourceAlpha" type="matrix" values="0 0 0 0 0 0 0 0 0 0 0 0 0 0 0 0 0 0 127 0" result="hardAlpha"/>
<feOffset dx="1" dy="1"/>
<feGaussianBlur stdDeviation="1.5"/>
<feComposite in2="hardAlpha" operator="out"/>
<feColorMatrix type="matrix" values="0 0 0 0 0 0 0 0 0 0 0 0 0 0 0 0 0 0 0.5 0"/>
<feBlend mode="normal" in2="BackgroundImageFix" result="effect1_dropShadow_12_75"/>
<feBlend mode="normal" in="SourceGraphic" in2="effect1_dropShadow_12_75" result="shape"/>
</filter>
<filter id="filter1_d_12_75" x="1.99998" y="0" width="71" height="71" filterUnits="userSpaceOnUse" color-interpolation-filters="sRGB">
<feFlood flood-opacity="0" result="BackgroundImageFix"/>
<feColorMatrix in="SourceAlpha" type="matrix" values="0 0 0 0 0 0 0 0 0 0 0 0 0 0 0 0 0 0 127 0" result="hardAlpha"/>
<feOffset dx="1" dy="1"/>
<feGaussianBlur stdDeviation="1.5"/>
<feComposite in2="hardAlpha" operator="out"/>
<feColorMatrix type="matrix" values="0 0 0 0 0 0 0 0 0 0 0 0 0 0 0 0 0 0 0.5 0"/>
<feBlend mode="normal" in2="BackgroundImageFix" result="effect1_dropShadow_12_75"/>
<feBlend mode="normal" in="SourceGraphic" in2="effect1_dropShadow_12_75" result="shape"/>
</filter>
<linearGradient id="paint0_linear_12_75" x1="38.5381" y1="9.05017" x2="40.6405" y2="62.8686" gradientUnits="userSpaceOnUse">
<stop offset="0.0304227" stop-color="white"/>
<stop offset="0.954571" stop-color="#FFF4F4" stop-opacity="0"/>
</linearGradient>
<linearGradient id="paint1_linear_12_75" x1="2" y1="37.0889" x2="71" y2="37.0889" gradientUnits="userSpaceOnUse">
<stop/>
<stop offset="0.491113" stop-color="#00C2FF"/>
<stop offset="1"/>
</linearGradient>
<linearGradient id="paint2_linear_12_75" x1="4" y1="2" x2="69" y2="67" gradientUnits="userSpaceOnUse">
<stop stop-color="#74CDFF"/>
<stop offset="0.468681" stop-color="#38B7FF"/>
<stop offset="1" stop-color="#00263A"/>
</linearGradient>
</defs>
</svg>
